<svg width="17" height="17" viewBox="0 0 17 17" fill="none" xmlns="http://www.w3.org/2000/svg">
<path d="M8.50035 10.6973C11.1779 10.6973 13.3485 8.52647 13.3485 5.84864C13.3485 3.17081 11.1779 1 8.50035 1C5.8228 1 3.65222 3.17081 3.65222 5.84864C3.65222 8.52647 5.8228 10.6973 8.50035 10.6973Z" stroke="black" stroke-opacity="0.6"/>
<path d="M5.84812 16C8.52567 16 10.6962 13.8292 10.6962 11.1514C10.6962 8.47354 8.52567 6.30273 5.84812 6.30273C3.17058 6.30273 1 8.47354 1 11.1514C1 13.8292 3.17058 16 5.84812 16Z" stroke="black" stroke-opacity="0.6"/>
<path d="M11.1518 16C13.8294 16 16 13.8292 16 11.1514C16 8.47354 13.8294 6.30273 11.1518 6.30273C8.47429 6.30273 6.30371 8.47354 6.30371 11.1514C6.30371 13.8292 8.47429 16 11.1518 16Z" stroke="black" stroke-opacity="0.6"/>
</svg>
