<svg width="14" height="17" viewBox="0 0 14 17" fill="none" xmlns="http://www.w3.org/2000/svg">
<path d="M8.5896 1.00293V3.91837C8.5896 4.3132 8.73069 4.69263 8.98233 4.97234C9.2346 5.25235 9.57615 5.40948 9.93214 5.40933H12.9321" stroke="black" stroke-opacity="0.6" stroke-linecap="round" stroke-linejoin="round"/>
<path d="M13 5.71773V12.6642C12.9856 13.1186 12.8906 13.5653 12.7206 13.9785C12.5506 14.3918 12.3089 14.7635 12.0095 15.0721C11.7098 15.3822 11.3582 15.6234 10.9748 15.782C10.5915 15.9406 10.1839 16.0134 9.77527 15.9964H4.25527C3.84417 16.0173 3.43341 15.9476 3.04653 15.7912C2.65965 15.6348 2.30425 15.3949 2.00073 15.0851C1.69838 14.7756 1.45421 14.4022 1.28242 13.9866C1.11063 13.571 1.01463 13.1215 1 12.6642V4.3346C1.01444 3.88024 1.1094 3.43355 1.2794 3.02029C1.44941 2.60702 1.6911 2.23535 1.99055 1.92669C2.29024 1.61659 2.6418 1.37536 3.02515 1.21678C3.4085 1.05819 3.81612 0.985358 4.22473 1.00244H8.38036C9.01475 0.999938 9.62711 1.2616 10.0975 1.73616L12.2502 3.94301C12.4799 4.1636 12.6654 4.43562 12.7946 4.74139C12.9238 5.04716 12.9937 5.37982 13 5.71773Z" stroke="black" stroke-opacity="0.6" stroke-linecap="round" stroke-linejoin="round"/>
</svg>
