<svg width="30" height="24" viewBox="0 0 30 24" fill="none" xmlns="http://www.w3.org/2000/svg">
<path fill-rule="evenodd" clip-rule="evenodd" d="M14.1207 0.0650555C14.6924 -0.0216852 15.274 -0.0216852 15.8457 0.0650555C16.4894 0.165056 17.1082 0.413805 18.1457 0.830055L27.1332 4.45506C27.8257 4.73506 28.3832 4.96006 28.7957 5.16756C29.1919 5.37006 29.5882 5.62131 29.7919 6.01756C29.9307 6.28631 29.9994 6.58006 29.9994 6.87381V16.8738C29.9994 17.0396 29.9336 17.1985 29.8164 17.3157C29.6992 17.433 29.5402 17.4988 29.3744 17.4988C29.2087 17.4988 29.0497 17.433 28.9325 17.3157C28.8153 17.1985 28.7494 17.0396 28.7494 16.8738V8.59881C28.3444 8.80131 27.8007 9.02006 27.1369 9.28881L26.2519 9.64506V16.8701C26.2519 19.2701 24.7019 20.9951 22.6019 22.0951C20.5019 23.1951 17.7269 23.7451 15.0019 23.7451C12.2769 23.7451 9.51443 23.1988 7.41443 22.0951C5.30193 20.9951 3.75193 19.2576 3.75193 16.8701V9.64506L2.86568 9.28756C2.17318 9.00756 1.61568 8.78256 1.20318 8.57381C0.806929 8.37256 0.411929 8.12131 0.206929 7.72381C0.0709338 7.45887 0 7.16536 0 6.86756C0 6.56976 0.0709338 6.27624 0.206929 6.01131C0.410679 5.61631 0.806929 5.36506 1.20318 5.16381C1.61318 4.95506 2.17193 4.72881 2.86568 4.45006L11.8407 0.825056C12.8744 0.407556 13.4907 0.158806 14.1407 0.0588057L14.1207 0.0650555ZM15.6457 1.29881C15.2025 1.23025 14.7514 1.23025 14.3082 1.29881C13.8244 1.37381 13.3482 1.56131 12.2082 2.02006L3.33318 5.59506C2.60443 5.88881 2.09818 6.09506 1.74568 6.27506C1.37068 6.46631 1.30193 6.56631 1.29318 6.58256C1.24778 6.67092 1.2241 6.76884 1.2241 6.86818C1.2241 6.96753 1.24778 7.06544 1.29318 7.15381C1.30193 7.17006 1.37068 7.27131 1.74568 7.46131C2.10068 7.64256 2.60693 7.84881 3.33318 8.14131L12.2082 11.7163C13.3419 12.1738 13.8207 12.3626 14.3082 12.4376C14.7514 12.5061 15.2025 12.5061 15.6457 12.4376C16.1294 12.3626 16.6057 12.1751 17.7457 11.7176L26.6207 8.14256C27.3494 7.84881 27.8569 7.64256 28.2082 7.46256C28.5832 7.27131 28.6519 7.17131 28.6607 7.15506C28.7061 7.06669 28.7298 6.96878 28.7298 6.86943C28.7298 6.77009 28.7061 6.67217 28.6607 6.58381C28.6519 6.56756 28.5832 6.46756 28.2082 6.27631C27.8532 6.09506 27.3457 5.89006 26.6207 5.59631L17.7457 2.02131C16.6119 1.56381 16.1332 1.37631 15.6457 1.30131V1.29881ZM18.1332 12.9113L24.9832 10.1488V16.8738C24.9832 18.6363 23.8732 20.0238 21.9957 20.9988C20.1207 21.9788 17.5707 22.4988 14.9832 22.4988C12.3957 22.4988 9.84568 21.9751 7.97068 20.9988C6.09568 20.0213 4.98318 18.6363 4.98318 16.8738V10.1613L11.8207 12.9238C12.8544 13.3413 13.4707 13.5901 14.1207 13.6901C14.6907 13.7776 15.2719 13.7776 15.8457 13.6901C16.4894 13.5901 17.1082 13.3413 18.1457 12.9251L18.1332 12.9113Z" fill="#FFFDFD"/>
</svg>
