<svg width="27" height="25" viewBox="0 0 27 25" fill="none" xmlns="http://www.w3.org/2000/svg">
<path d="M11.6754 15.9375C11.6754 16.2695 11.5582 16.5527 11.3238 16.7871L8.49668 19.6143C8.26231 19.8486 7.97422 19.9658 7.63242 19.9658C7.29063 19.9658 7.00254 19.8535 6.76816 19.6289C6.53379 19.4043 6.4166 19.1162 6.4166 18.7646C6.4166 18.4229 6.53379 18.1348 6.76816 17.9004L9.59531 15.0732C9.82969 14.8389 10.1178 14.7217 10.4596 14.7217C10.8014 14.7217 11.0895 14.8389 11.3238 15.0732C11.5582 15.3076 11.6754 15.5957 11.6754 15.9375ZM8.67246 14.4141C8.67246 14.7559 8.55527 15.0439 8.3209 15.2783L6.22617 17.3584C5.9918 17.5928 5.70859 17.71 5.37656 17.71C5.03477 17.71 4.74668 17.5977 4.51231 17.373C4.27793 17.1484 4.16074 16.8604 4.16074 16.5088C4.16074 16.167 4.27793 15.8789 4.51231 15.6445L6.59238 13.5498C6.69981 13.4424 6.83164 13.3594 6.98789 13.3008C7.14414 13.2422 7.30039 13.208 7.45664 13.1982C7.79844 13.1982 8.08652 13.3154 8.3209 13.5498C8.55527 13.7842 8.67246 14.0723 8.67246 14.4141ZM13.7262 18.4131C13.7262 18.7354 13.6041 19.0186 13.36 19.2627L10.7525 21.8701C10.5182 22.1045 10.2301 22.2217 9.88828 22.2217C9.54648 22.2217 9.2584 22.1094 9.02402 21.8848C8.78965 21.6602 8.67246 21.3721 8.67246 21.0205C8.67246 20.6787 8.78965 20.3906 9.02402 20.1562L11.6461 17.5488C11.8902 17.3047 12.1734 17.1826 12.4957 17.1826C12.8277 17.1826 13.1158 17.2998 13.36 17.5342C13.6041 17.7686 13.7262 18.0615 13.7262 18.4131ZM12.1441 24.4922C11.8023 24.4922 11.5143 24.375 11.2799 24.1406C11.0455 23.9062 10.9283 23.6182 10.9283 23.2764C10.9283 22.9346 11.0455 22.6465 11.2799 22.4121L13.2574 20.4492C13.5016 20.2051 13.7896 20.083 14.1217 20.083C14.4635 20.083 14.7516 20.2051 14.9859 20.4492C15.2203 20.6934 15.3375 20.9863 15.3375 21.3281C15.3375 21.4844 15.3033 21.6357 15.235 21.7822C15.1666 21.9287 15.0787 22.0557 14.9713 22.1631L13.0084 24.1406C12.774 24.375 12.4859 24.4922 12.1441 24.4922ZM26.2506 7.60254C26.2506 8.46191 26.1383 9.21387 25.9137 9.8584C25.6891 10.5029 25.3863 11.1035 25.0055 11.6602C24.6246 12.2168 24.1852 12.7441 23.6871 13.2422C23.1891 13.7402 22.6617 14.2773 22.1051 14.8535L13.4625 6.16699L9.11191 10.4883C8.81895 10.7617 8.47715 10.8984 8.08652 10.8984C7.68613 10.8984 7.34922 10.7617 7.07578 10.4883C6.80234 10.2148 6.66074 9.87305 6.65098 9.46289C6.65098 9.0625 6.79258 8.7207 7.07578 8.4375L13.3453 2.19727C14.068 1.48438 14.8883 0.942383 15.8063 0.571289C16.7242 0.200195 17.691 0.00976562 18.7066 0C19.7516 0 20.733 0.200195 21.651 0.600586C22.5689 1.00098 23.3648 1.54785 24.0387 2.24121C24.7125 2.93457 25.2496 3.74023 25.65 4.6582C26.0504 5.57617 26.2506 6.55762 26.2506 7.60254ZM22.2662 16.4502C22.2662 16.792 22.149 17.0801 21.9146 17.3145C21.6803 17.5488 21.3922 17.666 21.0504 17.666C20.7184 17.666 20.4352 17.5488 20.2008 17.3145L15.7037 12.8027C15.6354 12.7344 15.5426 12.7002 15.4254 12.7002C15.318 12.7002 15.2252 12.7344 15.1471 12.8027C15.0689 12.8711 15.0299 12.9639 15.0299 13.0811C15.0299 13.1787 15.0689 13.2666 15.1471 13.3447L20.0689 18.2666C20.3131 18.5107 20.4352 18.7988 20.4352 19.1309C20.4352 19.4727 20.318 19.7607 20.0836 19.9951C19.8492 20.2295 19.5563 20.3467 19.2047 20.3467C18.8727 20.3467 18.5895 20.2295 18.3551 19.9951L13.4332 15.0732C13.3648 15.0049 13.2721 14.9707 13.1549 14.9707C13.0475 14.9707 12.9596 15.0049 12.8912 15.0732C12.8229 15.1416 12.7838 15.2344 12.774 15.3516C12.774 15.4492 12.8131 15.5371 12.8912 15.6152L17.8131 20.5371C18.0475 20.7715 18.1646 21.0596 18.1646 21.4014C18.1646 21.7432 18.0475 22.0312 17.8131 22.2656C17.5787 22.5 17.2906 22.6172 16.9488 22.6172C16.6949 22.6172 16.4898 22.5635 16.3336 22.4561C16.1773 22.3486 16.0162 22.2021 15.8502 22.0166C15.9479 21.8115 15.9967 21.5723 15.9967 21.2988C15.9967 21.0352 15.9479 20.791 15.8502 20.5664C15.7525 20.3418 15.6158 20.1416 15.44 19.9658C15.2643 19.79 15.0592 19.6582 14.8248 19.5703C14.5904 19.4824 14.3414 19.4336 14.0777 19.4238C14.273 19.1211 14.3707 18.7842 14.3707 18.4131C14.3707 18.1494 14.3219 17.9053 14.2242 17.6807C14.1266 17.4561 13.9947 17.2559 13.8287 17.0801C13.6627 16.9043 13.4625 16.7676 13.2281 16.6699C12.9938 16.5723 12.7545 16.5234 12.5104 16.5234H12.3785C12.3395 16.5234 12.2906 16.5332 12.232 16.5527C12.2613 16.4453 12.2857 16.3428 12.3053 16.2451C12.3248 16.1475 12.3346 16.04 12.3346 15.9229C12.3346 15.6689 12.2857 15.4297 12.1881 15.2051C12.0904 14.9805 11.9586 14.7803 11.7926 14.6045C11.6266 14.4287 11.4264 14.292 11.192 14.1943C10.9576 14.0967 10.7135 14.0479 10.4596 14.0479C10.2545 14.0479 10.0592 14.082 9.87363 14.1504C9.68809 14.2188 9.50742 14.3115 9.33164 14.4287C9.33164 14.165 9.28281 13.9209 9.18516 13.6963C9.0875 13.4717 8.95566 13.2715 8.78965 13.0957C8.62363 12.9199 8.42832 12.7832 8.20371 12.6855C7.9791 12.5879 7.73008 12.5391 7.45664 12.5391C7.2125 12.5391 6.97324 12.583 6.73887 12.6709C6.50449 12.7588 6.29941 12.8955 6.12363 13.0811L4.26328 14.9561C3.67734 14.3604 3.12559 13.8086 2.60801 13.3008C2.09043 12.793 1.64121 12.2559 1.26035 11.6895C0.879492 11.123 0.571875 10.5078 0.3375 9.84375C0.103125 9.17969 -0.00917969 8.39844 0.000585938 7.5C0.000585938 6.46484 0.200781 5.49316 0.601172 4.58496C1.00156 3.67676 1.54844 2.88574 2.2418 2.21191C2.93516 1.53809 3.74082 1.00098 4.65879 0.600586C5.57676 0.200195 6.54844 0 7.57383 0C8.52109 0 9.4293 0.166016 10.2984 0.498047C11.1676 0.830078 11.9537 1.31836 12.6568 1.96289L6.60703 7.96875C6.41172 8.16406 6.26035 8.38867 6.15293 8.64258C6.04551 8.89648 5.98691 9.16992 5.97715 9.46289C5.97715 9.75586 6.03086 10.0293 6.13828 10.2832C6.2457 10.5371 6.39707 10.7568 6.59238 10.9424C6.7877 11.1279 7.01231 11.2793 7.26621 11.3965C7.52012 11.5137 7.79355 11.5723 8.08652 11.5723C8.36973 11.5723 8.63828 11.5186 8.89219 11.4111C9.14609 11.3037 9.37559 11.1523 9.58066 10.957L13.4625 7.08984L21.9146 15.5859C22.149 15.8203 22.2662 16.1084 22.2662 16.4502ZM13.7262 24.3457L15.3521 22.7197C15.4303 22.8955 15.4693 23.0713 15.4693 23.2471C15.4693 23.5889 15.3521 23.877 15.1178 24.1113C14.8834 24.3457 14.5953 24.4629 14.2535 24.4629C14.0777 24.4629 13.902 24.4238 13.7262 24.3457Z" fill="#FFFDFD"/>
</svg>
