<svg width="20" height="20" viewBox="0 0 20 20" fill="none" xmlns="http://www.w3.org/2000/svg">
<path d="M10 0C8.02219 0 6.08879 0.58649 4.4443 1.6853C2.79981 2.78412 1.51809 4.3459 0.761209 6.17316C0.00433286 8.00043 -0.1937 10.0111 0.192152 11.9509C0.578004 13.8907 1.53041 15.6725 2.92894 17.0711C4.32746 18.4696 6.10929 19.422 8.0491 19.8078C9.98891 20.1937 11.9996 19.9957 13.8268 19.2388C15.6541 18.4819 17.2159 17.2002 18.3147 15.5557C19.4135 13.9112 20 11.9778 20 10C20 7.34783 18.9464 4.8043 17.0711 2.92893C15.1957 1.05357 12.6522 0 10 0ZM10.8917 12.8833L6 14.8083C5.88348 14.8699 5.75029 14.8925 5.61996 14.8729C5.48964 14.8532 5.36904 14.7923 5.27585 14.6992C5.18265 14.606 5.12177 14.4854 5.10212 14.355C5.08247 14.2247 5.10509 14.0915 5.16667 13.975L7.09167 9.09167C7.11745 9.02866 7.15827 8.97293 7.21057 8.92934C7.26287 8.88576 7.32505 8.85566 7.39167 8.84167C7.45895 8.82951 7.52817 8.83378 7.59345 8.85409C7.65874 8.8744 7.71816 8.91016 7.76667 8.95833L11 12.1917C11.0482 12.2402 11.0839 12.2996 11.1042 12.3649C11.1246 12.4302 11.1288 12.4994 11.1167 12.5667C11.1077 12.6338 11.0825 12.6976 11.0433 12.7528C11.0041 12.808 10.9521 12.8528 10.8917 12.8833ZM14.8083 6.00833L12.8833 10.8917C12.8576 10.9547 12.8167 11.0104 12.7644 11.054C12.7121 11.0976 12.65 11.1277 12.5833 11.1417C12.5161 11.1553 12.4464 11.1518 12.3809 11.1314C12.3153 11.111 12.256 11.0744 12.2083 11.025L8.975 7.79167C8.92683 7.74315 8.89107 7.68373 8.87076 7.61845C8.85045 7.55317 8.84619 7.48395 8.85834 7.41667C8.87233 7.35004 8.90243 7.28786 8.94601 7.23556C8.9896 7.18327 9.04533 7.14244 9.10834 7.11667L14 5.19167C14.1126 5.14197 14.2378 5.12811 14.3585 5.15197C14.4793 5.17582 14.5898 5.23623 14.675 5.325C14.7645 5.41157 14.8252 5.52351 14.8491 5.64571C14.8729 5.7679 14.8587 5.89447 14.8083 6.00833Z" fill="black" fill-opacity="0.7"/>
</svg>
