<svg width="20" height="20" viewBox="0 0 20 20" fill="none" xmlns="http://www.w3.org/2000/svg">
<path d="M10.593 16.7453L10.582 16.7477L10.511 16.7889L10.491 16.7936L10.477 16.7889L10.406 16.7477C10.3953 16.7438 10.3873 16.7457 10.382 16.7536L10.378 16.7653L10.361 17.2689L10.366 17.2924L10.376 17.3077L10.48 17.3947L10.495 17.3994L10.507 17.3947L10.611 17.3077L10.623 17.2889L10.627 17.2689L10.61 16.7665C10.6073 16.7539 10.6017 16.7469 10.593 16.7453ZM10.858 16.6124L10.845 16.6147L10.66 16.7241L10.65 16.7359L10.647 16.7489L10.665 17.2547L10.67 17.2689L10.678 17.2771L10.879 17.3865C10.8917 17.3904 10.9014 17.3873 10.908 17.3771L10.912 17.3606L10.878 16.6383C10.8747 16.6241 10.868 16.6155 10.858 16.6124ZM10.1429 16.6147C10.1385 16.6116 10.1333 16.6106 10.1282 16.6119C10.1232 16.6132 10.1188 16.6168 10.1159 16.6218L10.1099 16.6383L10.0759 17.3606C10.0766 17.3747 10.0823 17.3841 10.0929 17.3889L10.1079 17.3865L10.309 17.2771L10.319 17.2677L10.323 17.2547L10.34 16.7489L10.337 16.7347L10.327 16.723L10.1429 16.6147Z" fill="black" fill-opacity="0.7"/>
<path d="M19.001 3.52941C19.2559 3.52974 19.5011 3.64456 19.6864 3.85041C19.8718 4.05626 19.9833 4.33759 19.9983 4.63694C20.0132 4.93628 19.9304 5.23103 19.7668 5.46098C19.6032 5.69092 19.3711 5.8387 19.118 5.87412L19.001 5.88235V17.6471C19.2559 17.6474 19.5011 17.7622 19.6864 17.9681C19.8718 18.1739 19.9833 18.4552 19.9983 18.7546C20.0132 19.0539 19.9304 19.3487 19.7668 19.5786C19.6032 19.8086 19.3711 19.9564 19.118 19.9918L19.001 20H0.999003C0.744095 19.9997 0.498915 19.8848 0.313559 19.679C0.128202 19.4732 0.016659 19.1918 0.00172023 18.8925C-0.0132185 18.5931 0.0695745 18.2984 0.233183 18.0684C0.396791 17.8385 0.628866 17.6907 0.88199 17.6553L0.999003 17.6471V5.88235C0.744095 5.88202 0.498915 5.7672 0.313559 5.56136C0.128202 5.35551 0.016659 5.07417 0.00172023 4.77483C-0.0132185 4.47549 0.0695745 4.18073 0.233183 3.95079C0.396791 3.72084 0.628866 3.57306 0.88199 3.53765L0.999003 3.52941H19.001ZM17.0008 5.88235H2.99922V17.6471H4.99945V9.41177C4.99945 9.09975 5.10482 8.80051 5.29237 8.57987C5.47993 8.35924 5.73431 8.23529 5.99956 8.23529C6.2648 8.23529 6.51919 8.35924 6.70674 8.57987C6.8943 8.80051 6.99967 9.09975 6.99967 9.41177V17.6471H8.99989V9.41177C8.99989 9.09975 9.10526 8.80051 9.29282 8.57987C9.48037 8.35924 9.73475 8.23529 10 8.23529C10.2652 8.23529 10.5196 8.35924 10.7072 8.57987C10.8947 8.80051 11.0001 9.09975 11.0001 9.41177V17.6471H13.0003V9.41177C13.0003 9.09975 13.1057 8.80051 13.2933 8.57987C13.4808 8.35924 13.7352 8.23529 14.0004 8.23529C14.2657 8.23529 14.5201 8.35924 14.7076 8.57987C14.8952 8.80051 15.0006 9.09975 15.0006 9.41177V17.6471H17.0008V5.88235ZM16.0007 0C16.2659 0 16.5203 0.123949 16.7079 0.344581C16.8954 0.565212 17.0008 0.864451 17.0008 1.17647C17.0008 1.48849 16.8954 1.78773 16.7079 2.00836C16.5203 2.22899 16.2659 2.35294 16.0007 2.35294H3.99934C3.73409 2.35294 3.47971 2.22899 3.29215 2.00836C3.10459 1.78773 2.99922 1.48849 2.99922 1.17647C2.99922 0.864451 3.10459 0.565212 3.29215 0.344581C3.47971 0.123949 3.73409 0 3.99934 0H16.0007Z" fill="black" fill-opacity="0.7"/>
</svg>
