<svg width="20" height="20" viewBox="0 0 20 20" fill="none" xmlns="http://www.w3.org/2000/svg">
<path d="M20 5.56158C19.9936 5.53505 19.9936 5.50769 20 5.48115C19.9951 5.45787 19.9951 5.43404 20 5.41077V5.32028L19.9289 5.16946C19.8998 5.12847 19.8639 5.09123 19.8224 5.05886L19.7158 4.97843H19.6565L14.9903 2.47487L10.5846 0.162352C10.4819 0.0947233 10.3655 0.0436101 10.2411 0.0115353H10.1464C10.0406 -0.00384512 9.93242 -0.00384512 9.8266 0.0115353H9.70817C9.57042 0.0368696 9.43843 0.0810127 9.31734 0.142243L0.470392 4.81756L0.363802 4.88794L0.257213 4.96837L0.13878 5.03875L0.0795631 5.09908L0.00850311 5.2499V5.40071C-0.00283437 5.4674 -0.00283437 5.53512 0.00850311 5.6018V14.3793C0.00810035 14.5502 0.0589984 14.7183 0.156392 14.8679C0.253785 15.0174 0.394461 15.1434 0.565138 15.234L9.44762 19.8992L9.62527 19.9595H9.72001C9.92038 20.0135 10.1355 20.0135 10.3359 19.9595H10.4306L10.6083 19.8992L19.4197 15.3043C19.5904 15.2138 19.731 15.0878 19.8284 14.9382C19.9258 14.7887 19.9767 14.6206 19.9763 14.4497V5.67218C19.9763 5.67218 20 5.6018 20 5.56158ZM9.94503 2.19335L12.0531 3.29934L5.43274 6.77817L3.31279 5.67218L9.94503 2.19335ZM8.7607 17.275L2.24689 13.8967V7.47193L8.7607 10.8904V17.275ZM9.94503 9.12085L7.68296 7.96459L14.3034 4.4757L16.5773 5.67218L9.94503 9.12085ZM17.6432 13.8665L11.1294 17.3052V10.8904L17.6432 7.47193V13.8665Z" fill="black" fill-opacity="0.7"/>
</svg>
