<svg width="20" height="20" viewBox="0 0 20 20" fill="none" xmlns="http://www.w3.org/2000/svg">
<path d="M20 15.1648V4.95743C20.0009 4.8261 19.9695 4.69655 19.9086 4.58023C19.8244 4.39871 19.6786 4.25291 19.4971 4.16874L10.3543 0.0766579C10.243 0.0261369 10.1222 0 9.99999 0C9.87778 0 9.75699 0.0261369 9.64571 0.0766579L0.502857 4.16874C0.355812 4.24275 0.231473 4.35509 0.142965 4.49391C0.0544578 4.63273 0.00506469 4.79287 0 4.95743V15.039C0.0085442 15.2027 0.0593577 15.3615 0.147486 15.4997C0.235615 15.6379 0.358051 15.7509 0.502857 15.8277L9.64571 19.9198C9.75635 19.9726 9.8774 20 9.99999 20C10.1226 20 10.2436 19.9726 10.3543 19.9198L19.4971 15.8277C19.6291 15.7673 19.7441 15.6751 19.8318 15.5594C19.9196 15.4438 19.9773 15.3082 20 15.1648ZM1.71428 6.27193L9.14285 9.6096V17.8166L1.71428 14.4904V6.27193ZM10.8571 9.6096L18.2857 6.27193V14.4904L10.8571 17.8166V9.6096ZM10.0228 1.79122L17.0743 4.95743L10.0228 8.11222L2.97143 4.95743L10.0228 1.79122Z" fill="black" fill-opacity="0.7"/>
</svg>
