<svg width="20" height="20" viewBox="0 0 20 20" fill="none" xmlns="http://www.w3.org/2000/svg">
<path fill-rule="evenodd" clip-rule="evenodd" d="M18.8971 0.624637L18.5503 1.44992C19.3742 1.10032 19.3742 1.10175 19.3756 1.10175V1.10462L19.3785 1.11035L19.3842 1.12468C19.4151 1.20026 19.4437 1.27671 19.4702 1.35392C19.7733 2.24014 19.9489 3.16494 19.9917 4.10057C20.0648 5.81561 19.6794 8.05505 17.7938 9.94488C17.0989 10.6613 16.1045 11.3748 15.0084 12.0697C15.636 13.3664 15.669 14.6587 15.2807 15.8823C14.825 17.308 13.8192 18.5788 12.7016 19.6649C12.6051 19.7587 12.4886 19.8296 12.3609 19.8722C12.2332 19.9148 12.0975 19.9281 11.9639 19.911C11.8303 19.8939 11.7024 19.847 11.5895 19.7736C11.4766 19.7002 11.3817 19.6023 11.3118 19.4872L8.55654 14.9138L5.08486 11.4436L0.514226 8.68833C0.398652 8.61878 0.300285 8.52401 0.226471 8.41111C0.152657 8.29821 0.105302 8.17009 0.0879441 8.03632C0.0705857 7.90255 0.0836718 7.76659 0.126225 7.63859C0.168779 7.51059 0.2397 7.39385 0.333693 7.2971C1.42119 6.17953 2.69208 5.17372 4.11629 4.71953C5.37329 4.30337 6.74386 4.40123 7.92897 4.99176C8.62532 3.89425 9.33885 2.8999 10.0553 2.20643C11.9437 0.320887 14.1846 -0.0659637 15.8996 0.00854094C16.8353 0.0513999 17.7601 0.227 18.6463 0.530074L18.8756 0.616041L18.8899 0.621772L18.8971 0.624637ZM18.5503 1.44992L19.3742 1.10032C19.2825 0.88693 19.1122 0.717074 18.8985 0.62607L18.5503 1.44992ZM13.2891 11.018C13.3372 10.9847 13.3885 10.9564 13.4424 10.9335C14.7778 10.1183 15.8567 9.3732 16.5115 8.6955L16.5215 8.68404C17.9529 7.25412 18.2623 5.56344 18.2022 4.1765C18.1715 3.48928 18.0525 2.80886 17.8483 2.15198C17.1909 1.9476 16.51 1.82865 15.8223 1.79809C14.4368 1.73791 12.7461 2.04739 11.3161 3.47874L11.3047 3.48877C10.6298 4.14068 9.88475 5.2167 9.06948 6.54776C9.03479 6.63377 8.98641 6.71361 8.9262 6.78417L8.76573 7.05353L12.9452 11.233L13.226 11.0653L13.2891 11.018ZM13.2346 13.1429L13.2748 13.1185L13.4682 13.0053C13.8221 13.8277 13.8092 14.5971 13.5728 15.3393C13.3378 16.0758 12.8707 16.8179 12.2374 17.5544L10.5252 14.7118C10.9789 14.4462 11.436 14.1811 11.8964 13.9166L12.0082 13.8535C12.4208 13.6157 12.8296 13.3788 13.2346 13.1429ZM11.3462 12.1671L7.83154 8.65251L7.60803 9.0408C7.32338 9.53845 7.03109 10.0433 6.73115 10.5552L9.44345 13.2689C9.96069 12.9652 10.4837 12.6643 10.9995 12.3663L11.1141 12.3004L11.3462 12.1671ZM4.66075 6.42597C5.42359 6.16756 6.2557 6.20541 6.99192 6.532C6.67814 7.06499 6.35433 7.62808 6.03051 8.18973C5.77977 8.62386 5.5319 9.05656 5.28832 9.47493L2.44564 7.76276C3.1821 7.12947 3.92286 6.66095 4.66075 6.42597ZM0.0127455 19.1491C-0.00920939 19.2639 -0.00272731 19.3824 0.0316261 19.4941C0.0659794 19.6059 0.12716 19.7075 0.209829 19.7902C0.292498 19.8728 0.394143 19.934 0.505893 19.9684C0.617643 20.0027 0.736103 20.0092 0.850935 19.9873H0.862397L0.895351 19.9801L1.02001 19.9543C1.64034 19.8277 2.25673 19.6825 2.86832 19.5187C3.39846 19.3755 3.96728 19.2035 4.46733 19.0101C4.93299 18.831 5.44163 18.5946 5.76401 18.2865C6.25612 17.8228 6.56846 17.2 6.64586 16.5282C6.72326 15.8565 6.56073 15.179 6.18698 14.6155C5.81324 14.052 5.25233 13.6387 4.60338 13.4486C3.95442 13.2586 3.25919 13.3041 2.6405 13.577C2.29056 13.7325 1.97534 13.9566 1.71348 14.2361C1.40543 14.5584 1.16902 15.0671 0.989916 15.5327C0.794445 16.0571 0.624695 16.5908 0.481272 17.1317C0.306412 17.7838 0.152545 18.4413 0.0199095 19.1032L0.0141783 19.1376L0.0113127 19.1462L0.0127455 19.1491ZM15.0428 3.52459C14.6628 3.52459 14.2984 3.67554 14.0297 3.94424C13.761 4.21294 13.61 4.57737 13.61 4.95737C13.61 5.33737 13.761 5.7018 14.0297 5.9705C14.2984 6.2392 14.6628 6.39015 15.0428 6.39015C15.4228 6.39015 15.7873 6.2392 16.056 5.9705C16.3247 5.7018 16.4756 5.33737 16.4756 4.95737C16.4756 4.57737 16.3247 4.21294 16.056 3.94424C15.7873 3.67554 15.4228 3.52459 15.0428 3.52459Z" fill="black" fill-opacity="0.7"/>
</svg>
