<svg width="20" height="20" viewBox="0 0 20 20" fill="none" xmlns="http://www.w3.org/2000/svg">
<path fill-rule="evenodd" clip-rule="evenodd" d="M11.3689 0.329686C12.0712 -0.359233 13.439 0.111559 13.3279 1.00406L12.5434 7.27341H18.8893C19.1004 7.27347 19.3071 7.32274 19.4853 7.41544C19.6634 7.50814 19.8056 7.64043 19.8951 7.79683C19.9847 7.95323 20.0179 8.12725 19.9909 8.29853C19.9639 8.46981 19.8778 8.63125 19.7426 8.76395L8.63105 19.6703C7.9288 20.3592 6.56097 19.8884 6.67208 18.9959L7.45656 12.7266H1.11074C0.899606 12.7265 0.692863 12.6773 0.514721 12.5846C0.33658 12.4919 0.194415 12.3596 0.104874 12.2032C0.0153324 12.0468 -0.0178789 11.8727 0.00912894 11.7015C0.0361368 11.5302 0.122246 11.3688 0.257373 11.2361L11.3689 0.329686ZM3.48306 10.9089H9.42553C9.48765 10.9089 9.54908 10.9195 9.60585 10.9401C9.66263 10.9607 9.71349 10.9909 9.75516 11.0285C9.79683 11.0662 9.82838 11.1106 9.84778 11.1589C9.86717 11.2072 9.87398 11.2582 9.86777 11.3088L9.2533 16.2212L16.5169 9.09114H10.5745C10.5124 9.09114 10.4509 9.08049 10.3942 9.05988C10.3374 9.03926 10.2865 9.00915 10.2448 8.97147C10.2032 8.93379 10.1716 8.88938 10.1522 8.84111C10.1328 8.79285 10.126 8.74179 10.1322 8.69124L10.7467 3.77973L3.48306 10.9089Z" fill="black" fill-opacity="0.7"/>
</svg>
