<svg width="23" height="27" viewBox="0 0 23 27" fill="none" xmlns="http://www.w3.org/2000/svg">
<path d="M9.375 8.44158C9.375 9.43615 8.97991 10.39 8.27665 11.0932C7.57339 11.7965 6.61956 12.1916 5.625 12.1916C4.63044 12.1916 3.67661 11.7965 2.97335 11.0932C2.27009 10.39 1.875 9.43615 1.875 8.44158V0.00408393H0V8.44158C0.0013461 9.76991 0.472731 11.0549 1.33067 12.069C2.18862 13.0831 3.37776 13.7608 4.6875 13.9822V26.2541H6.5625V13.9822C7.87224 13.7608 9.06138 13.0831 9.91933 12.069C10.7773 11.0549 11.2487 9.76991 11.25 8.44158V0.00408393H9.375V8.44158ZM16.875 0.00408393H15.9375V26.2541H17.8125V16.8791H20.625C21.1223 16.8791 21.5992 16.6815 21.9508 16.3299C22.3025 15.9783 22.5 15.5014 22.5 15.0041V5.62908C22.529 4.88263 22.4033 4.13823 22.1309 3.44265C21.8585 2.74708 21.4452 2.11534 20.917 1.58712C20.3887 1.05889 19.757 0.64559 19.0614 0.373168C18.3659 0.100746 17.6215 -0.0249124 16.875 0.00408393ZM20.625 15.0041H17.8125V1.96346C20.5125 2.48846 20.625 5.28221 20.625 5.62908V15.0041Z" fill="black" fill-opacity="0.5"/>
</svg>
