<svg width="30" height="30" viewBox="0 0 30 30" fill="none" xmlns="http://www.w3.org/2000/svg">
<path d="M20.1555 2.34375V3.66187C19.3866 3.79257 18.6564 4.09298 18.018 4.54125L17.0505 3.63188L15.7615 5.01L16.699 5.88844C16.2712 6.51404 15.9813 7.22349 15.8487 7.96969H14.5305V9.84469H15.8487C15.9855 10.6228 16.293 11.3316 16.728 11.9541L15.7315 12.9197L17.0815 14.2697L18.0471 13.2722C18.6696 13.7072 19.3784 14.0147 20.1565 14.1516V15.4688H22.0315V14.1506C22.7776 14.0183 23.4871 13.7287 24.1127 13.3012L24.9902 14.2387L26.3684 12.9488L25.459 11.9831C25.8996 11.355 26.1996 10.6284 26.3384 9.84375H27.6555V7.96875H26.3374C26.2027 7.20958 25.9025 6.4894 25.458 5.85938L26.3374 4.98L25.0184 3.66187L24.1399 4.54125C23.5099 4.09679 22.7897 3.79655 22.0305 3.66187V2.34375H20.1555ZM21.093 5.44969C21.5478 5.4467 21.9987 5.53406 22.4195 5.7067C22.8403 5.87934 23.2226 6.13382 23.5442 6.45537C23.8658 6.77693 24.1204 7.15916 24.2932 7.57988C24.4659 8.00061 24.5534 8.45145 24.5505 8.90625C24.5505 10.8328 23.0196 12.3637 21.093 12.3637C19.1665 12.3637 17.6355 10.8328 17.6355 8.90625C17.6355 6.97969 19.1665 5.44875 21.093 5.44875V5.44969ZM8.93367 10.9856L7.2068 11.6888L7.87992 13.3856C6.98395 13.9219 6.23022 14.666 5.68242 15.555L4.01367 14.88L3.31055 16.6097L4.9793 17.2828C4.84763 17.7899 4.77899 18.3114 4.77492 18.8353C4.77492 19.3697 4.85461 19.8909 4.9793 20.3878L3.31055 21.0628L4.01367 22.7906L5.68242 22.1156C6.22535 23.0162 6.97963 23.7708 7.87992 24.3141L7.20492 25.9828L8.93461 26.6859L9.60961 25.0172C10.1167 25.1489 10.6382 25.2175 11.1621 25.2216C11.6965 25.2216 12.2196 25.1419 12.7146 25.0172L13.3896 26.6859L15.1174 25.9828L14.4424 24.3141C15.3323 23.7674 16.0767 23.0134 16.6118 22.1166L18.3087 22.7897L19.0118 21.0619L17.3149 20.3869C17.4368 19.89 17.5193 19.3678 17.5193 18.8344C17.5193 18.3 17.4377 17.7769 17.313 17.2809L19.0127 16.6078L18.3096 14.8781L16.6127 15.5531C16.074 14.6665 15.33 13.9225 14.4434 13.3837L15.1184 11.6869L13.3887 10.9837L12.7165 12.6806C12.2087 12.551 11.6871 12.4827 11.163 12.4772C10.6287 12.4772 10.1074 12.5578 9.61055 12.6816L8.93555 10.9847L8.93367 10.9856ZM11.1612 14.3531C13.6577 14.3531 15.6424 16.3406 15.6424 18.8362C15.6443 21.3328 13.6577 23.3475 11.1612 23.3475C10.5685 23.3482 9.98158 23.2321 9.43392 23.0056C8.88625 22.7792 8.38864 22.4469 7.96959 22.0278C7.55053 21.6088 7.21826 21.1112 6.99181 20.5635C6.76536 20.0158 6.64918 19.4289 6.64992 18.8362C6.64992 16.3397 8.66555 14.3531 11.1612 14.3531Z" fill="black" fill-opacity="0.4"/>
</svg>
