<svg width="30" height="30" viewBox="0 0 30 30" fill="none" xmlns="http://www.w3.org/2000/svg">
<path fill-rule="evenodd" clip-rule="evenodd" d="M14.8487 6.87547C13.655 7.02172 12.5237 7.44547 12.0462 7.83797C9.26121 10.1405 7.68871 13.1842 6.87246 15.838C6.52099 16.9622 6.2856 18.1195 6.16996 19.2917C6.12746 19.7705 6.08871 20.2717 6.16121 20.7505C6.63996 21.293 7.31746 21.6867 7.94621 22.0242C9.25996 22.7305 11.2337 23.463 13.8875 23.758C15.39 23.9255 17.2875 24.0205 19.0375 23.8805C20.8537 23.7342 22.2462 23.353 22.9687 22.7742C24.1862 21.8005 24.4937 20.6642 24.3825 19.6692C24.2637 18.5992 23.6625 17.6942 23.0575 17.2905C22.0137 16.5955 20.8387 16.5255 19.7312 16.8155C18.5912 17.1155 17.655 17.7655 17.2125 18.298C17.1014 18.4319 16.9637 18.5412 16.808 18.6189C16.6523 18.6965 16.4822 18.7408 16.3084 18.7489C16.1346 18.7571 15.9611 18.7288 15.7988 18.666C15.6366 18.6032 15.4892 18.5072 15.3662 18.3842C14.6787 17.6967 13.51 17.4967 11.9437 18.5405C11.7728 18.6546 11.5765 18.7248 11.372 18.7449C11.1675 18.765 10.9612 18.7344 10.7714 18.6558C10.5815 18.5772 10.414 18.453 10.2836 18.2943C10.1532 18.1355 10.0639 17.947 10.0237 17.7455C9.66621 15.953 9.85246 14.048 10.1825 12.4767C10.515 10.903 11.015 9.54922 11.3825 8.81672C11.4864 8.60937 11.646 8.43502 11.8433 8.31318C12.0407 8.19134 12.268 8.12681 12.5 8.12681C12.7319 8.12681 12.9593 8.19134 13.1566 8.31318C13.354 8.43502 13.5135 8.60937 13.6175 8.81672C13.8712 9.32172 14.335 9.77422 14.875 9.96422C15.2937 9.70047 15.6575 9.33172 15.9525 8.93797C16.495 8.21547 16.6762 7.53172 16.435 6.92797C15.945 6.75297 15.3525 6.81422 14.8487 6.87547ZM16.7025 4.42047C17.3075 4.53672 18.1912 4.83922 18.6175 5.69172C19.5512 7.55922 18.78 9.33422 17.9525 10.438C17.4125 11.158 16.7175 11.8355 15.9087 12.2505C15.74 12.338 15.3962 12.5005 15 12.5005C14.2612 12.5005 13.5375 12.1642 12.9437 11.7442C12.8312 12.1267 12.7225 12.5467 12.6287 12.9917C12.4433 13.8455 12.3428 14.7156 12.3287 15.5892C13.645 15.1642 14.9912 15.2092 16.1512 15.8642C17.023 15.1796 18.0256 14.6806 19.0975 14.398C20.7225 13.9717 22.6725 14.0305 24.4437 15.2105C25.7125 16.0567 26.6737 17.6505 26.8675 19.3942C27.07 21.2117 26.4387 23.1992 24.53 24.7267C23.1825 25.8042 21.1287 26.2205 19.2387 26.3717C17.2825 26.5292 15.2162 26.4217 13.6125 26.243C10.64 25.913 8.35746 25.083 6.76246 24.2267C5.71621 23.6642 4.28496 22.8867 3.83121 21.6955C3.52496 20.888 3.60496 19.908 3.67996 19.068C3.77996 17.9667 4.02496 16.5917 4.48371 15.1017C5.39871 12.128 7.18996 8.60922 10.4537 5.91172C11.4575 5.08172 13.1375 4.56672 14.5437 4.39422C15.2687 4.30547 16.0312 4.29297 16.7025 4.42047Z" fill="black" fill-opacity="0.4"/>
</svg>
