<svg width="30" height="30" viewBox="0 0 30 30" fill="none" xmlns="http://www.w3.org/2000/svg">
<path fill-rule="evenodd" clip-rule="evenodd" d="M19.5995 6.68457C18.6217 6.68358 17.6835 7.07096 16.9913 7.76152C16.2991 8.45209 15.9095 9.3893 15.9082 10.3671C15.9099 11.3448 16.2998 12.2819 16.9922 12.9723C17.6847 13.6626 18.6229 14.0497 19.6007 14.0483C20.5785 14.0497 21.5167 13.6626 22.2092 12.9723C22.9016 12.2819 23.2915 11.3448 23.2932 10.3671C23.2925 9.88282 23.1965 9.40345 23.0106 8.95631C22.8247 8.50917 22.5525 8.10303 22.2096 7.76108C21.8667 7.41913 21.4599 7.14806 21.0122 6.96335C20.5646 6.77865 20.0837 6.68392 19.5995 6.68457ZM17.7845 10.3671C17.7851 10.1291 17.8326 9.89349 17.9243 9.67384C18.016 9.45419 18.1501 9.25475 18.3189 9.08691C18.4876 8.91906 18.6878 8.78611 18.908 8.69563C19.1281 8.60515 19.3639 8.55892 19.602 8.55957C20.6095 8.55957 21.4195 9.37207 21.4195 10.3671C21.4178 10.8476 21.2254 11.3077 20.8846 11.6464C20.5438 11.9851 20.0824 12.1747 19.602 12.1733C19.1215 12.1747 18.6601 11.9851 18.3193 11.6464C17.9785 11.3077 17.7861 10.8476 17.7845 10.3671Z" fill="black" fill-opacity="0.4"/>
<path fill-rule="evenodd" clip-rule="evenodd" d="M11.9127 26.0975C12.2752 25.6083 12.4652 25.0125 12.4527 24.4038C12.9427 24.5488 13.4277 24.5662 13.8927 24.4788C14.8527 24.2962 15.5639 23.6888 15.9414 23.1888L15.9477 23.18L15.9539 23.1713C16.217 22.8126 16.3977 22.4004 16.4833 21.964C16.5688 21.5276 16.5571 21.0776 16.4489 20.6462C16.3566 20.2703 16.2047 19.9116 15.9989 19.5837C15.9038 19.4081 15.7898 19.2434 15.6589 19.0925L15.6702 19.08L16.2502 18.5025C16.7277 18.7313 17.2452 18.875 17.6977 18.9688C18.3243 19.097 18.9618 19.1648 19.6014 19.1712C24.4777 19.1712 28.4377 15.2338 28.4377 10.3663C28.4377 5.50125 24.4777 1.5625 19.6002 1.5625C14.7252 1.5625 10.7639 5.5 10.7639 10.3663C10.7686 11.5019 11.0114 12.6239 11.4764 13.66L2.40643 22.6925C1.98327 23.1209 1.70072 23.6682 1.59643 24.2612C1.47268 25.015 1.67518 25.8537 2.40643 26.5812L3.50893 27.6787L3.56143 27.7288C3.98925 28.087 4.50647 28.322 5.05768 28.4087C5.45026 28.4696 5.85171 28.435 6.2281 28.3079C6.6045 28.1808 6.94478 27.965 7.22018 27.6787L7.92768 26.9738C8.53734 27.33 9.25564 27.4526 9.94893 27.3187C10.7227 27.1654 11.4151 26.738 11.8989 26.115L11.9064 26.1063L11.9127 26.0975ZM12.6389 10.3663C12.6389 6.54375 15.7527 3.4375 19.6014 3.4375C23.4489 3.4375 26.5627 6.54375 26.5627 10.3663C26.5627 14.1912 23.4502 17.2962 19.6002 17.2962C19.2602 17.2962 18.6714 17.255 18.0777 17.1337C17.4564 17.0037 16.9689 16.8125 16.7089 16.5963C16.5292 16.4475 16.3006 16.3712 16.0676 16.382C15.8346 16.3929 15.614 16.4902 15.4489 16.655L14.3464 17.7525C14.0952 18.0025 13.8527 18.2875 13.7239 18.6162C13.5614 19.0325 13.6139 19.4325 13.7989 19.7663C13.9089 19.9625 14.0864 20.15 14.1602 20.2288L14.1852 20.255C14.2727 20.3512 14.3189 20.4137 14.3539 20.4837L14.3877 20.55L14.4252 20.6025L14.4339 20.615C14.4456 20.6342 14.4631 20.6658 14.4864 20.71C14.5339 20.8013 14.5889 20.93 14.6239 21.0812C14.6695 21.2493 14.6763 21.4255 14.6438 21.5966C14.6113 21.7676 14.5404 21.9291 14.4364 22.0688C14.2614 22.2975 13.9277 22.5637 13.5439 22.6362C13.2214 22.6975 12.6964 22.6575 11.9964 21.9613C11.8207 21.7861 11.5827 21.6877 11.3346 21.6877C11.0864 21.6877 10.8484 21.7861 10.6727 21.9613L10.3052 22.3263C10.1353 22.4951 10.0365 22.7226 10.029 22.962C10.0216 23.2015 10.1061 23.4347 10.2652 23.6138C10.2802 23.6338 10.3031 23.6671 10.3339 23.7138C10.3939 23.8075 10.4639 23.9387 10.5139 24.0887C10.6089 24.37 10.6239 24.6712 10.3952 24.9963C10.2452 25.19 9.94143 25.4113 9.59643 25.4762C9.30393 25.5325 8.92893 25.4912 8.50643 25.07C8.3307 24.8948 8.09269 24.7964 7.84456 24.7964C7.59643 24.7964 7.35841 24.8948 7.18268 25.07L5.89643 26.3512C5.69018 26.5562 5.50893 26.58 5.33143 26.5537C5.1389 26.5184 4.95736 26.4383 4.80143 26.32L3.73018 25.2525C3.43143 24.9562 3.42018 24.7275 3.44643 24.565C3.48666 24.3598 3.58518 24.1706 3.73018 24.02L13.2852 14.5037C13.4349 14.3545 13.5294 14.1587 13.5533 13.9486C13.5771 13.7385 13.5289 13.5266 13.4164 13.3475L13.4139 13.3438C13.3771 13.2827 13.3429 13.2202 13.3114 13.1562C12.8739 12.291 12.6437 11.3358 12.6389 10.3663ZM10.2514 23.595C10.2514 23.5967 10.2531 23.5988 10.2564 23.6012L10.2552 23.6L10.2514 23.595Z" fill="black" fill-opacity="0.4"/>
</svg>
