<svg width="30" height="30" viewBox="0 0 30 30" fill="none" xmlns="http://www.w3.org/2000/svg">
<path fill-rule="evenodd" clip-rule="evenodd" d="M11.1313 5.3125H18.8688C19.9163 5.3125 20.5838 5.3125 21.1588 5.42625C22.3105 5.65536 23.3684 6.22084 24.1988 7.05121C25.0292 7.88157 25.5946 8.93951 25.8237 10.0912C25.9113 10.5287 25.9313 11.02 25.9363 11.6912C26.6566 11.8952 27.2907 12.3287 27.7421 12.9259C28.1936 13.5231 28.4378 14.2513 28.4375 15V18.055C28.4375 19.9675 27.44 21.6475 25.9375 22.6012V23.75C25.9375 23.9986 25.8387 24.2371 25.6629 24.4129C25.4871 24.5887 25.2486 24.6875 25 24.6875C24.7514 24.6875 24.5129 24.5887 24.3371 24.4129C24.1613 24.2371 24.0625 23.9986 24.0625 23.75V23.3438C23.7358 23.4062 23.4 23.4375 23.055 23.4375H6.945C6.6 23.4375 6.26417 23.4062 5.9375 23.3438V23.75C5.9375 23.9986 5.83873 24.2371 5.66291 24.4129C5.4871 24.5887 5.24864 24.6875 5 24.6875C4.75136 24.6875 4.5129 24.5887 4.33709 24.4129C4.16127 24.2371 4.0625 23.9986 4.0625 23.75V22.6012C3.29618 22.1161 2.66507 21.445 2.22795 20.6503C1.79083 19.8556 1.56191 18.9632 1.5625 18.0562V15C1.5625 13.425 2.62 12.1 4.06375 11.6912C4.06875 11.02 4.08875 10.5287 4.17625 10.0912C4.40536 8.93951 4.97085 7.88157 5.80121 7.05121C6.63157 6.22084 7.68951 5.65536 8.84125 5.42625C9.41625 5.3125 10.0838 5.3125 11.1313 5.3125ZM5.94 11.6925C6.65945 11.897 7.29255 12.3306 7.74327 12.9275C8.19399 13.5244 8.43772 14.252 8.4375 15V16.5C8.4375 16.535 8.465 16.5625 8.5 16.5625H21.5C21.5166 16.5625 21.5325 16.5559 21.5442 16.5442C21.5559 16.5325 21.5625 16.5166 21.5625 16.5V15C21.5625 13.4275 22.6187 12.1013 24.06 11.6925C24.055 11.055 24.0387 10.73 23.985 10.4575C23.8283 9.66926 23.4414 8.9452 22.8731 8.37692C22.3048 7.80864 21.5807 7.42169 20.7925 7.265C20.4225 7.1925 19.9563 7.1875 18.75 7.1875H11.25C10.0438 7.1875 9.5775 7.1925 9.2075 7.265C8.41926 7.42169 7.6952 7.80864 7.12692 8.37692C6.55865 8.9452 6.17169 9.66926 6.015 10.4575C5.96125 10.73 5.945 11.0563 5.94 11.6925ZM5 13.4375C4.1375 13.4375 3.4375 14.1375 3.4375 15V18.055C3.4375 18.9852 3.80704 19.8774 4.46482 20.5352C5.12261 21.193 6.01475 21.5625 6.945 21.5625H23.055C23.9852 21.5625 24.8774 21.193 25.5352 20.5352C26.193 19.8774 26.5625 18.9852 26.5625 18.055V15C26.5625 14.5856 26.3979 14.1882 26.1049 13.8951C25.8118 13.6021 25.4144 13.4375 25 13.4375C24.5856 13.4375 24.1882 13.6021 23.8951 13.8951C23.6021 14.1882 23.4375 14.5856 23.4375 15V16.5C23.4375 17.0139 23.2334 17.5067 22.87 17.87C22.5067 18.2334 22.0139 18.4375 21.5 18.4375H8.5C7.98614 18.4375 7.49333 18.2334 7.12998 17.87C6.76663 17.5067 6.5625 17.0139 6.5625 16.5V15C6.5625 14.1375 5.8625 13.4375 5 13.4375Z" fill="black" fill-opacity="0.4"/>
</svg>
