<svg width="30" height="30" viewBox="0 0 30 30" fill="none" xmlns="http://www.w3.org/2000/svg">
<path fill-rule="evenodd" clip-rule="evenodd" d="M29.0877 5.38539C28.8691 4.42478 28.3865 3.54433 27.6944 2.84331C27.0022 2.1423 26.1279 1.6486 25.1702 1.41789C25.1161 1.40394 25.0598 1.40077 25.0045 1.40858C24.9491 1.41639 24.8959 1.43502 24.8478 1.4634C24.7997 1.49178 24.7576 1.52935 24.7241 1.57399C24.6905 1.61862 24.666 1.66943 24.652 1.72352C24.6381 1.7776 24.6349 1.83391 24.6427 1.88922C24.6505 1.94453 24.6692 1.99776 24.6975 2.04587C24.7259 2.09399 24.7635 2.13604 24.8081 2.16963C24.8528 2.20322 24.9036 2.22769 24.9577 2.24164C25.5555 2.39801 26.113 2.68031 26.5929 3.06964C27.0728 3.45898 27.4639 3.94636 27.7402 4.49914C27.1152 5.03664 26.4927 5.63414 25.8189 6.12039C25.3433 6.4788 24.7937 6.72649 24.2102 6.84539C23.9887 6.90147 23.7567 6.90147 23.5352 6.84539C23.0877 6.70789 22.6877 6.44539 22.2889 6.25789C21.5984 5.97965 20.8998 5.72204 20.1939 5.48539C19.4814 5.24789 18.7339 5.02289 18.0102 4.77289C17.2864 4.52289 16.5139 4.47414 15.7777 4.28789C15.4917 4.2311 15.2117 4.1474 14.9414 4.03789L14.4927 3.77539C14.6927 3.77539 14.8552 3.26414 14.9927 3.12789C15.5277 2.55289 16.1389 2.00414 16.6877 1.41789L16.9752 1.10539C17.9743 0.98289 18.9764 0.937474 19.9814 0.96914C20.6864 0.980807 21.3847 1.05164 22.0764 1.18164C22.7705 1.3046 23.4486 1.50545 24.0977 1.78039C24.1909 1.81528 24.2939 1.81412 24.3864 1.77713C24.4788 1.74015 24.5542 1.66999 24.5977 1.58039C24.6326 1.48711 24.6314 1.38416 24.5944 1.29169C24.5574 1.19922 24.4873 1.12388 24.3977 1.08039C23.6846 0.767567 22.9393 0.534082 22.1752 0.38414C21.4548 0.205023 20.7205 0.0879284 19.9802 0.0341403C18.2635 -0.0633266 16.5414 0.0542522 14.8539 0.38414C13.1502 0.72164 11.4914 1.25914 9.91391 1.98039C8.62307 2.53989 7.5411 3.49153 6.82141 4.70039C6.22266 5.77289 6.32141 5.94789 5.98516 10.1129C5.91016 10.9879 5.87266 11.8854 5.88516 12.8829C6.11016 13.8054 6.63766 14.6266 7.38266 15.2154C8.31048 16.1033 9.36591 16.8473 10.5139 17.4229C12.0911 17.9963 13.7205 18.4141 15.3789 18.6704C17.0589 18.9904 18.7777 19.0654 20.4802 18.8954C22.2752 18.6791 24.0302 18.2079 25.6939 17.4979C26.8609 16.9884 27.8941 16.2158 28.7127 15.2404C29.3408 14.3312 29.7192 13.273 29.8102 12.1716C30.0539 9.88414 29.8064 7.57039 29.0877 5.38539ZM8.00641 5.38664C8.56162 4.40072 9.41251 3.61411 10.4389 3.13789C11.8871 2.4046 13.4146 1.83967 14.9914 1.45414L15.4414 1.36664C15.0289 1.71664 14.6039 2.05414 14.1939 2.41539C13.9356 2.61289 13.6939 2.82914 13.4689 3.06414C13.3082 3.25333 13.2123 3.489 13.1952 3.73664C13.1839 3.99708 13.2634 4.25334 13.4202 4.46164C13.6689 4.76914 13.9839 5.01664 14.3427 5.18414C14.6693 5.34247 15.0064 5.47581 15.3539 5.58414C16.0764 5.80789 16.8377 5.92039 17.5614 6.14414L21.7527 7.51664C22.2514 7.69164 22.7002 7.92914 23.1877 8.05414C23.5964 8.15914 24.0252 8.15914 24.4339 8.05414C25.1626 7.84429 25.8387 7.48262 26.4177 6.99289C26.9927 6.51789 27.5152 5.97039 28.0389 5.44664V5.64664C28.2141 6.44754 28.2028 7.27798 28.006 8.07383C27.8092 8.86969 27.4321 9.60967 26.9039 10.2366C26.4772 10.7324 25.9502 11.132 25.3577 11.4091C24.4364 11.8254 23.4702 12.1316 22.4764 12.3191C20.6872 12.6782 18.8569 12.7876 17.0377 12.6441C15.2271 12.5035 13.4461 12.104 11.7489 11.4579C10.9509 11.1547 10.2023 10.7347 9.52766 10.2116C8.87777 9.71752 8.34898 9.08186 7.98141 8.35289C7.73899 7.88586 7.61452 7.3666 7.61888 6.84041C7.62324 6.31422 7.75629 5.7971 8.00641 5.33414V5.38664ZM28.7127 12.0216C28.6094 12.923 28.2743 13.7821 27.7402 14.5154C27.0102 15.3064 26.1159 15.928 25.1202 16.3366C23.5591 16.9597 21.9164 17.3546 20.2427 17.5091C18.6805 17.644 17.1072 17.5684 15.5652 17.2841C13.9931 17.0449 12.4448 16.6697 10.9377 16.1629C9.91591 15.6952 8.97 15.0771 8.13141 14.3291C7.49391 13.7791 6.88391 13.2429 6.88391 12.8191V9.40164C7.33766 10.1554 7.93391 10.8129 8.64266 11.3354C9.43307 11.9539 10.3121 12.4499 11.2502 12.8066C13.0852 13.5066 15.0152 13.9266 16.9752 14.0541C18.9252 14.1791 20.8839 14.0191 22.7877 13.5791C23.9095 13.3373 24.9955 12.952 26.0189 12.4329C26.7441 12.0652 27.3852 11.5511 27.9014 10.9229C28.3414 10.3579 28.6864 9.72664 28.9252 9.05289C28.9589 10.0466 28.8877 11.0416 28.7127 12.0216ZM7.07141 17.0104C6.53447 17.3262 5.95413 17.5616 5.34891 17.7091L4.60141 17.8716L3.84016 18.0091C3.24266 18.1266 2.62766 18.1266 2.03141 18.0091C1.94101 17.9798 1.8429 17.9852 1.75631 18.0244C1.66971 18.0636 1.60089 18.1338 1.56334 18.2211C1.52578 18.3084 1.5222 18.4066 1.55329 18.4964C1.58438 18.5863 1.64791 18.6612 1.73141 18.7066C2.39391 19.1066 3.14391 19.3391 3.91516 19.3816C4.2435 19.39 4.56766 19.3566 4.88766 19.2816C5.2085 19.2166 5.51641 19.1125 5.81141 18.9691C6.48742 18.6708 7.10106 18.2475 7.62016 17.7216C7.69917 17.642 7.7435 17.5344 7.7435 17.4223C7.7435 17.3101 7.69917 17.2025 7.62016 17.1229C7.55481 17.0446 7.46479 16.9908 7.36486 16.9704C7.26493 16.9499 7.16227 16.964 7.07141 17.0104ZM14.8052 24.2704C14.7552 23.9454 14.7177 23.6212 14.6927 23.2979C14.6746 22.9736 14.6746 22.6485 14.6927 22.3241C14.6928 21.5524 14.8631 20.7901 15.1914 20.0916C15.2527 19.9973 15.2741 19.8825 15.2508 19.7724C15.2274 19.6624 15.1614 19.5661 15.067 19.5048C14.9727 19.4434 14.8579 19.4221 14.7478 19.4454C14.6378 19.4687 14.5415 19.5348 14.4802 19.6291C13.8897 20.3694 13.5028 21.2509 13.3577 22.1866C13.2852 22.6008 13.2643 23.0166 13.2952 23.4341C13.3139 23.8366 13.3852 24.2354 13.5077 24.6191C13.7985 25.5021 14.2654 26.3168 14.8802 27.0141C14.9078 27.0553 14.9433 27.0906 14.9847 27.1179C15.0261 27.1453 15.0725 27.1641 15.1212 27.1734C15.1699 27.1827 15.2199 27.1823 15.2685 27.1721C15.317 27.1619 15.363 27.1422 15.4039 27.1141C15.4845 27.0562 15.5397 26.9696 15.5583 26.8722C15.5769 26.7748 15.5575 26.6739 15.5039 26.5904C15.1443 25.8609 14.909 25.077 14.8052 24.2704ZM6.51016 25.7179C6.38465 25.6462 6.25013 25.5915 6.11016 25.5554L6.18516 25.2304C6.21016 25.0271 6.21016 24.8233 6.18516 24.6191C6.11447 24.0491 5.90454 23.5051 5.57391 23.0354C5.23979 22.5384 4.77293 22.1452 4.22641 21.9004C3.82124 21.7259 3.37711 21.6618 2.93913 21.7145C2.50114 21.7672 2.0849 21.9348 1.73266 22.2004C1.40712 22.4668 1.15408 22.8111 0.996975 23.2014C0.839872 23.5916 0.783786 24.0152 0.833912 24.4329C0.858913 24.6421 0.908913 24.8458 0.983913 25.0441C1.03475 25.19 1.09725 25.3312 1.17141 25.4679C1.01646 25.5125 0.869016 25.5799 0.733913 25.6679C0.521413 25.8066 0.348913 26.0004 0.235163 26.2291C0.145838 26.4247 0.0996094 26.6372 0.0996094 26.8523C0.0996094 27.0673 0.145838 27.2798 0.235163 27.4754C0.360162 27.7504 0.532663 28.0004 0.747663 28.2129C0.691548 28.4039 0.691548 28.6069 0.747663 28.7979C0.848321 29.0622 1.01624 29.2957 1.23482 29.4753C1.45339 29.6548 1.71505 29.7742 1.99391 29.8216C2.27641 29.8591 2.55933 29.8591 2.84266 29.8216C3.15141 29.7929 3.45016 29.6941 3.71516 29.5341C3.76229 29.489 3.80422 29.4386 3.84016 29.3841C4.01516 29.5083 4.20266 29.6125 4.40266 29.6966C4.63516 29.8216 4.88016 29.9133 5.13766 29.9716C5.60146 30.0505 6.07829 29.97 6.49049 29.7432C6.90269 29.5165 7.22597 29.1568 7.40766 28.7229C7.58038 28.3166 7.64245 27.8719 7.58756 27.4339C7.53267 26.9959 7.36278 26.5802 7.09516 26.2291C6.93813 26.0193 6.73884 25.846 6.51016 25.7179ZM6.22266 28.2104C6.07266 28.5729 5.46141 29.1466 4.31391 28.2979C4.24949 28.2427 4.17341 28.2027 4.09136 28.1811C4.00932 28.1595 3.92344 28.1566 3.84016 28.1729C3.71178 28.2041 3.59212 28.2639 3.49016 28.3479C3.39016 28.4354 3.27766 28.6104 3.20391 28.6729C3.07207 28.7615 2.92296 28.8211 2.76641 28.8479C2.58391 28.8729 2.40141 28.8729 2.21891 28.8479C1.32016 28.7354 2.14391 27.9854 1.69391 27.5991C1.63342 27.5553 1.56272 27.5277 1.48855 27.519C1.41437 27.5102 1.33919 27.5206 1.27016 27.5491L1.14516 27.3366C1.09089 27.2351 1.0625 27.1218 1.0625 27.0066C1.0625 26.8915 1.09089 26.7782 1.14516 26.6766C1.17376 26.6026 1.21618 26.5348 1.27016 26.4766C1.3641 26.4297 1.46572 26.4001 1.57016 26.3891L1.90766 26.4766C2.03445 26.4883 2.1615 26.4575 2.26891 26.3891C2.3863 26.3346 2.47794 26.2366 2.52457 26.1158C2.57119 25.9951 2.56917 25.8609 2.51891 25.7416C2.41891 25.4291 2.26891 25.1291 2.16891 24.8179C2.04983 24.5513 2.01956 24.2534 2.08258 23.9683C2.14559 23.6831 2.29855 23.4258 2.51891 23.2341C2.69287 23.1327 2.89065 23.0792 3.09204 23.0792C3.29343 23.0792 3.4912 23.1327 3.66516 23.2341C3.96016 23.3766 4.20766 23.6016 4.37766 23.8829C4.57266 24.1704 4.70141 24.4979 4.75016 24.8429V25.0679C4.52516 24.9679 4.38891 25.7529 4.41391 25.9404C4.43766 26.1291 4.53016 26.3029 4.67641 26.4279C4.81141 26.5346 4.95683 26.6258 5.11266 26.7016C5.41266 26.8391 5.76141 26.8016 6.01016 27.1141C6.13845 27.2674 6.2281 27.4492 6.2716 27.6443C6.3151 27.8394 6.31118 28.0421 6.26016 28.2354L6.22266 28.2104ZM10.2264 19.9916C9.67016 20.2141 9.16766 20.5541 8.75516 20.9891C8.58016 21.1833 8.43016 21.3958 8.30516 21.6266C8.19016 21.8591 8.09891 22.1 8.03141 22.3491C7.87266 22.9341 7.83141 23.5441 7.90641 24.1454C7.903 24.2016 7.91114 24.258 7.93034 24.3109C7.94953 24.3639 7.97937 24.4124 8.01802 24.4534C8.05667 24.4944 8.10331 24.527 8.15506 24.5493C8.20681 24.5716 8.26257 24.583 8.31891 24.5829C8.43143 24.5859 8.54055 24.5442 8.62234 24.4669C8.70412 24.3895 8.75189 24.2829 8.75516 24.1704C8.8493 23.7663 8.99596 23.3763 9.19141 23.0104L9.46641 22.4866C9.60391 22.2366 9.72891 21.9866 9.86516 21.7504C10.0701 21.3011 10.3345 20.8815 10.6514 20.5029C10.6922 20.4764 10.7272 20.442 10.7544 20.4018C10.7816 20.3615 10.8004 20.3161 10.8097 20.2685C10.8191 20.2208 10.8187 20.1717 10.8087 20.1241C10.7987 20.0766 10.7792 20.0315 10.7514 19.9916C10.6799 19.9258 10.5862 19.8892 10.4889 19.8892C10.3917 19.8892 10.298 19.9258 10.2264 19.9916Z" fill="black" fill-opacity="0.5"/>
<path fill-rule="evenodd" clip-rule="evenodd" d="M14.6683 9.5256C15.1533 9.7206 15.6478 9.8831 16.152 10.0131C16.9008 10.1881 17.6495 10.3006 18.3983 10.4881C18.5059 10.5241 18.6233 10.5168 18.7257 10.4678C18.8281 10.4188 18.9075 10.332 18.947 10.2256C18.972 10.1741 18.9863 10.1181 18.9891 10.0609C18.9919 10.0037 18.9831 9.94653 18.9632 9.89283C18.9434 9.83913 18.9129 9.78999 18.8736 9.74837C18.8343 9.70674 18.787 9.67349 18.7345 9.6506C18.0591 9.31181 17.3724 8.99579 16.6758 8.7031L15.7783 8.3656C15.4799 8.2656 15.1766 8.17851 14.8683 8.10435C14.1433 7.91685 13.4333 7.80435 12.722 7.5806C12.6769 7.55972 12.6281 7.54802 12.5785 7.54616C12.5288 7.5443 12.4793 7.55233 12.4328 7.56978C12.3863 7.58722 12.3437 7.61374 12.3075 7.64778C12.2713 7.68183 12.2423 7.72273 12.222 7.7681C12.1794 7.85749 12.1739 7.96011 12.2067 8.05355C12.2395 8.14698 12.3079 8.22366 12.397 8.26685C13.117 8.75518 13.8741 9.17393 14.6683 9.5256Z" fill="black" fill-opacity="0.5"/>
</svg>
