<svg width="25" height="25" viewBox="0 0 25 25" fill="none" xmlns="http://www.w3.org/2000/svg">
<path d="M2.24444 25C1.60463 25 1.07083 24.7594 0.643056 24.2781C0.215278 23.7969 0.000925926 23.1958 0 22.475V7.2125C0 6.49271 0.214352 5.89219 0.643056 5.41094C1.07176 4.92969 1.60509 4.68854 2.24306 4.6875H8.33333V2.52344C8.33333 1.80469 8.54769 1.20417 8.97639 0.721878C9.40509 0.239586 9.93889 -0.0010383 10.5778 3.36746e-06H14.4236C15.0625 3.36746e-06 15.5963 0.240628 16.025 0.721878C16.4537 1.20313 16.6676 1.80365 16.6667 2.52344V4.6875H22.7569C23.3958 4.6875 23.9292 4.92865 24.3569 5.41094C24.7847 5.89323 24.9991 6.49375 25 7.2125V22.4766C25 23.1953 24.7856 23.7958 24.3569 24.2781C23.9282 24.7604 23.3949 25.001 22.7569 25H2.24444ZM9.72222 4.6875H15.2778V2.52344C15.2778 2.28386 15.1889 2.06354 15.0111 1.8625C14.8333 1.66146 14.6375 1.56146 14.4236 1.5625H10.5764C10.3634 1.5625 10.1676 1.6625 9.98889 1.8625C9.81019 2.0625 9.7213 2.28281 9.72222 2.52344V4.6875ZM23.6111 16.4062H15.2778V18.75H9.72222V16.4062H1.38889V22.4766C1.38889 22.7161 1.47778 22.9365 1.65556 23.1375C1.83333 23.3385 2.02917 23.4385 2.24306 23.4375H22.7569C22.9699 23.4375 23.1657 23.3375 23.3444 23.1375C23.5231 22.9375 23.612 22.7167 23.6111 22.475V16.4062ZM11.1111 17.1875H13.8889V14.0625H11.1111V17.1875ZM1.38889 14.8438H9.72222V12.5H15.2778V14.8438H23.6111V7.2125C23.6111 6.97188 23.5222 6.75104 23.3444 6.55C23.1667 6.34896 22.9708 6.24896 22.7569 6.25H2.24306C2.03009 6.25 1.83426 6.35 1.65556 6.55C1.47685 6.75 1.38796 6.97084 1.38889 7.2125V14.8438Z" fill="black" fill-opacity="0.5"/>
</svg>
