<svg width="30" height="30" viewBox="0 0 30 30" fill="none" xmlns="http://www.w3.org/2000/svg">
<path d="M22.6907 14.1937C23.0594 14.5624 23.3519 15.0001 23.5515 15.4818C23.751 15.9635 23.8538 16.4798 23.8538 17.0012C23.8538 17.5227 23.751 18.039 23.5515 18.5207C23.3519 19.0024 23.0594 19.4401 22.6907 19.8088L22.6782 19.8213L15.0007 27.5L7.32069 19.82L7.30944 19.8088C6.93207 19.4317 6.63463 18.9824 6.43492 18.4878C6.23522 17.9931 6.13734 17.4633 6.14716 16.9299C6.15697 16.3966 6.27427 15.8707 6.49204 15.3837C6.70982 14.8968 7.02358 14.4587 7.41457 14.0959C7.80555 13.733 8.26572 13.4527 8.76755 13.2718C9.26937 13.0908 9.80253 13.013 10.3351 13.0429C10.8677 13.0728 11.3888 13.2099 11.8672 13.4458C12.3456 13.6818 12.7715 14.0119 13.1194 14.4162L15.0007 16.2987L16.8132 14.4862C17.1646 14.0573 17.6019 13.7067 18.097 13.457C18.5922 13.2074 19.1341 13.0642 19.688 13.0368C20.2418 13.0093 20.7952 13.0982 21.3126 13.2977C21.83 13.4972 22.2999 13.8029 22.6919 14.195L22.6907 14.1937ZM11.2494 6.25C11.2494 6.74246 11.3464 7.23009 11.5349 7.68506C11.7233 8.14003 11.9996 8.55343 12.3478 8.90165C12.696 9.24987 13.1094 9.52609 13.5644 9.71455C14.0193 9.903 14.507 10 14.9994 10C15.4919 10 15.9795 9.903 16.4345 9.71455C16.8895 9.52609 17.3029 9.24987 17.6511 8.90165C17.9993 8.55343 18.2755 8.14003 18.464 7.68506C18.6524 7.23009 18.7494 6.74246 18.7494 6.25C18.7494 5.75754 18.6524 5.26991 18.464 4.81494C18.2755 4.35997 17.9993 3.94657 17.6511 3.59835C17.3029 3.25013 16.8895 2.97391 16.4345 2.78545C15.9795 2.597 15.4919 2.5 14.9994 2.5C14.507 2.5 14.0193 2.597 13.5644 2.78545C13.1094 2.97391 12.696 3.25013 12.3478 3.59835C11.9996 3.94657 11.7233 4.35997 11.5349 4.81494C11.3464 5.26991 11.2494 5.75754 11.2494 6.25Z" stroke="black" stroke-opacity="0.5" stroke-width="1.5"/>
</svg>
