<svg width="30" height="30" viewBox="0 0 30 30" fill="none" xmlns="http://www.w3.org/2000/svg">
<path d="M3.21512 20.3576C4.39798 20.3576 5.35798 18.9176 5.35798 17.1433C5.35798 15.369 4.39798 13.929 3.21512 13.929C2.03227 13.929 1.07227 15.369 1.07227 17.1433C1.07227 18.9176 2.03227 20.3576 3.21512 20.3576ZM9.64369 10.7147C10.8266 10.7147 11.7866 9.2747 11.7866 7.50042C11.7866 5.72613 10.8266 4.28613 9.64369 4.28613C8.46084 4.28613 7.50084 5.72613 7.50084 7.50042C7.50084 9.2747 8.46084 10.7147 9.64369 10.7147ZM20.358 10.7147C21.5408 10.7147 22.5008 9.2747 22.5008 7.50042C22.5008 5.72613 21.5408 4.28613 20.358 4.28613C19.1751 4.28613 18.2151 5.72613 18.2151 7.50042C18.2151 9.2747 19.1751 10.7147 20.358 10.7147ZM26.7866 20.3576C27.9694 20.3576 28.9294 18.9176 28.9294 17.1433C28.9294 15.369 27.9694 13.929 26.7866 13.929C25.6037 13.929 24.6437 15.369 24.6437 17.1433C24.6437 18.9176 25.6037 20.3576 26.7866 20.3576ZM21.4294 21.429C21.4294 24.3861 17.958 25.7147 15.0008 25.7147C12.0437 25.7147 8.57227 24.3861 8.57227 21.429C8.57227 18.4718 10.7151 13.929 15.0008 13.929C19.2866 13.929 21.4294 18.4718 21.4294 21.429Z" stroke="black" stroke-opacity="0.5" stroke-linecap="round" stroke-linejoin="round"/>
</svg>
