<svg width="30" height="30" viewBox="0 0 30 30" fill="none" xmlns="http://www.w3.org/2000/svg">
<path d="M14.0625 8.90625C11.0912 9.62168 8.5459 11.9713 7.01367 13.2088C6.57164 12.7992 6.10579 12.4161 5.61855 12.0615C3.48809 10.5053 0.9375 10.3125 0.9375 10.3125C0.9375 10.3125 1.60371 13.3318 3.36094 14.99C1.60371 16.6488 0.9375 19.6682 0.9375 19.6682C0.9375 19.6682 3.48809 19.4754 5.61855 17.9191C6.10167 17.5676 6.56361 17.1878 7.00195 16.7818C8.53125 18.0205 11.0883 20.376 14.0625 21.0938L13.125 24.375C15.4354 23.9842 17.7457 22.2943 18.675 21.5479C26.25 21.2109 29.0625 16.3477 29.0625 15C29.0625 13.7109 26.25 8.78906 18.6979 8.45332C17.7844 7.72148 15.4547 6.01875 13.125 5.625L14.0625 8.90625Z" stroke="black" stroke-opacity="0.5" stroke-linejoin="round"/>
<path d="M24.375 14.999C24.8928 14.999 25.3125 14.5793 25.3125 14.0615C25.3125 13.5438 24.8928 13.124 24.375 13.124C23.8572 13.124 23.4375 13.5438 23.4375 14.0615C23.4375 14.5793 23.8572 14.999 24.375 14.999Z" fill="black" fill-opacity="0.5"/>
<path d="M22.1709 20.8594C21.1378 19.0794 20.5938 17.058 20.5938 15C20.5937 12.942 21.1378 10.9206 22.1709 9.14062" stroke="black" stroke-opacity="0.5" stroke-miterlimit="20" stroke-linecap="round"/>
</svg>
