<svg width="30" height="30" viewBox="0 0 30 30" fill="none" xmlns="http://www.w3.org/2000/svg">
<path d="M8.25 10.5C8.05109 10.5 7.86032 10.579 7.71967 10.7197C7.57902 10.8603 7.5 11.0511 7.5 11.25V15.75C7.5 15.9489 7.57902 16.1397 7.71967 16.2803C7.86032 16.421 8.05109 16.5 8.25 16.5H21.75C21.9489 16.5 22.1397 16.421 22.2803 16.2803C22.421 16.1397 22.5 15.9489 22.5 15.75V11.25C22.5 11.0511 22.421 10.8603 22.2803 10.7197C22.1397 10.579 21.9489 10.5 21.75 10.5H8.25ZM9 15V12H21V15H9ZM17.25 18C17.0511 18 16.8603 18.079 16.7197 18.2197C16.579 18.3603 16.5 18.5511 16.5 18.75V21.75C16.5 21.9489 16.579 22.1397 16.7197 22.2803C16.8603 22.421 17.0511 22.5 17.25 22.5H21.75C21.9489 22.5 22.1397 22.421 22.2803 22.2803C22.421 22.1397 22.5 21.9489 22.5 21.75V18.75C22.5 18.5511 22.421 18.3603 22.2803 18.2197C22.1397 18.079 21.9489 18 21.75 18H17.25ZM18 21V19.5H21V21H18ZM3 6.75C3 6.15327 3.23705 5.58097 3.65901 5.15901C4.08097 4.73706 4.65326 4.5 5.25 4.5H24.75C25.2814 4.49921 25.7958 4.6865 26.2024 5.02869C26.6089 5.37089 26.8811 5.84591 26.971 6.36962C27.0608 6.89333 26.9624 7.43193 26.6931 7.89004C26.4239 8.34814 26.0012 8.69617 25.5 8.8725V24.75C25.5 24.9489 25.421 25.1397 25.2803 25.2803C25.1397 25.421 24.9489 25.5 24.75 25.5H5.25C5.05109 25.5 4.86032 25.421 4.71967 25.2803C4.57902 25.1397 4.5 24.9489 4.5 24.75V8.8725C4.06113 8.71734 3.68119 8.42988 3.41254 8.04974C3.14389 7.6696 2.99976 7.21549 3 6.75ZM5.25 6C5.05109 6 4.86032 6.07902 4.71967 6.21967C4.57902 6.36032 4.5 6.55109 4.5 6.75C4.5 6.94892 4.57902 7.13968 4.71967 7.28033C4.86032 7.42098 5.05109 7.5 5.25 7.5H24.75C24.9489 7.5 25.1397 7.42098 25.2803 7.28033C25.421 7.13968 25.5 6.94892 25.5 6.75C25.5 6.55109 25.421 6.36032 25.2803 6.21967C25.1397 6.07902 24.9489 6 24.75 6H5.25ZM6 9V24H7.5V18.75C7.5 18.5511 7.57902 18.3603 7.71967 18.2197C7.86032 18.079 8.05109 18 8.25 18H14.25C14.4489 18 14.6397 18.079 14.7803 18.2197C14.921 18.3603 15 18.5511 15 18.75V24H24V9H6ZM9 24H13.5V19.5H9V24Z" fill="black" fill-opacity="0.5"/>
</svg>
