<svg width="30" height="30" viewBox="0 0 30 30" fill="none" xmlns="http://www.w3.org/2000/svg">
<path d="M7.0451 22.9549C6.00042 21.9103 5.17174 20.6701 4.60637 19.3051C4.04099 17.9402 3.75 16.4773 3.75 14.9999C3.75 13.5225 4.04099 12.0596 4.60637 10.6947C5.17174 9.32978 6.00042 8.08958 7.0451 7.04492M22.9551 7.04492C23.9998 8.08958 24.8285 9.32978 25.3938 10.6947C25.9592 12.0596 26.2502 13.5225 26.2502 14.9999C26.2502 16.4773 25.9592 17.9402 25.3938 19.3051C24.8285 20.6701 23.9998 21.9103 22.9551 22.9549M10.5801 19.4199C9.99956 18.8395 9.53904 18.1505 9.22484 17.3921C8.91065 16.6337 8.74893 15.8208 8.74893 14.9999C8.74893 14.179 8.91065 13.3662 9.22484 12.6078C9.53904 11.8494 9.99956 11.1603 10.5801 10.5799M19.4201 10.5799C20.0006 11.1603 20.4612 11.8494 20.7754 12.6078C21.0895 13.3662 21.2513 14.179 21.2513 14.9999C21.2513 15.8208 21.0895 16.6337 20.7754 17.3921C20.4612 18.1505 20.0006 18.8395 19.4201 19.4199M16.2501 14.9999C16.2501 15.3314 16.1184 15.6494 15.884 15.8838C15.6496 16.1182 15.3316 16.2499 15.0001 16.2499C14.6686 16.2499 14.3506 16.1182 14.1162 15.8838C13.8818 15.6494 13.7501 15.3314 13.7501 14.9999C13.7501 14.6684 13.8818 14.3505 14.1162 14.116C14.3506 13.8816 14.6686 13.7499 15.0001 13.7499C15.3316 13.7499 15.6496 13.8816 15.884 14.116C16.1184 14.3505 16.2501 14.6684 16.2501 14.9999Z" stroke="black" stroke-opacity="0.5" stroke-width="2" stroke-linecap="round" stroke-linejoin="round"/>
</svg>
