<svg width="386" height="50" viewBox="0 0 386 50" fill="none" xmlns="http://www.w3.org/2000/svg">
            <g filter="url(#filter0_d_2_865)">
                <rect x="133" y="3" width="120" height="40" rx="16" fill="#FFFDFD" shape-rendering="crispEdges" />
                <path d="M181 18.5556C181 20.52 177.418 22.1111 173 22.1111C168.582 22.1111 165 20.52 165 18.5556M181 18.5556C181 16.5911 177.418 15 173 15C168.582 15 165 16.5911 165 18.5556M181 18.5556V23M165 18.5556V23M181 23C181 24.9644 177.418 26.5556 173 26.5556C168.582 26.5556 165 24.9644 165 23M181 23V27.4444C181 29.4089 177.418 31 173 31C168.582 31 165 29.4089 165 27.4444V23" stroke="#444444" stroke-linecap="round" stroke-linejoin="round" />
                <path d="M190.186 29H186.419V17.3636H190.305C191.446 17.3636 192.425 17.5966 193.243 18.0625C194.061 18.5246 194.688 19.1894 195.124 20.0568C195.563 20.9205 195.783 21.9564 195.783 23.1648C195.783 24.3769 195.561 25.4186 195.118 26.2898C194.679 27.161 194.042 27.8314 193.209 28.3011C192.375 28.767 191.368 29 190.186 29ZM188.175 27.4659H190.089C190.976 27.4659 191.713 27.2992 192.3 26.9659C192.887 26.6288 193.326 26.142 193.618 25.5057C193.91 24.8655 194.055 24.0852 194.055 23.1648C194.055 22.2519 193.91 21.4773 193.618 20.8409C193.33 20.2045 192.9 19.7216 192.328 19.392C191.756 19.0625 191.046 18.8977 190.197 18.8977H188.175V27.4659ZM200.369 29.1932C199.816 29.1932 199.316 29.0909 198.869 28.8864C198.422 28.678 198.068 28.3769 197.807 27.983C197.549 27.589 197.42 27.1061 197.42 26.5341C197.42 26.0417 197.515 25.6364 197.705 25.3182C197.894 25 198.15 24.7481 198.472 24.5625C198.794 24.3769 199.153 24.2367 199.551 24.142C199.949 24.0473 200.354 23.9754 200.767 23.9261C201.29 23.8655 201.714 23.8163 202.04 23.7784C202.366 23.7367 202.602 23.6705 202.75 23.5795C202.898 23.4886 202.972 23.3409 202.972 23.1364V23.0966C202.972 22.6004 202.831 22.2159 202.551 21.9432C202.275 21.6705 201.862 21.5341 201.312 21.5341C200.741 21.5341 200.29 21.661 199.96 21.9148C199.634 22.1648 199.409 22.4432 199.284 22.75L197.688 22.3864C197.877 21.8561 198.153 21.428 198.517 21.1023C198.884 20.7727 199.307 20.5341 199.784 20.3864C200.261 20.2348 200.763 20.1591 201.29 20.1591C201.638 20.1591 202.008 20.2008 202.398 20.2841C202.792 20.3636 203.159 20.5114 203.5 20.7273C203.845 20.9432 204.127 21.2519 204.347 21.6534C204.566 22.0511 204.676 22.5682 204.676 23.2045V29H203.017V27.8068H202.949C202.839 28.0265 202.674 28.2424 202.455 28.4545C202.235 28.6667 201.953 28.8428 201.608 28.983C201.263 29.1231 200.85 29.1932 200.369 29.1932ZM200.739 27.8295C201.208 27.8295 201.61 27.7367 201.943 27.5511C202.28 27.3655 202.536 27.1231 202.71 26.8239C202.888 26.5208 202.977 26.197 202.977 25.8523V24.7273C202.917 24.7879 202.799 24.8447 202.625 24.8977C202.455 24.947 202.259 24.9905 202.04 25.0284C201.82 25.0625 201.606 25.0947 201.398 25.125C201.189 25.1515 201.015 25.1742 200.875 25.1932C200.545 25.2348 200.244 25.3049 199.972 25.4034C199.703 25.5019 199.487 25.6439 199.324 25.8295C199.165 26.0114 199.085 26.2538 199.085 26.5568C199.085 26.9773 199.241 27.2955 199.551 27.5114C199.862 27.7235 200.258 27.8295 200.739 27.8295ZM211.013 20.2727V21.6364H206.246V20.2727H211.013ZM207.524 18.1818H209.223V26.4375C209.223 26.767 209.272 27.0152 209.371 27.1818C209.469 27.3447 209.596 27.4564 209.751 27.517C209.911 27.5739 210.083 27.6023 210.268 27.6023C210.405 27.6023 210.524 27.5928 210.626 27.5739C210.729 27.5549 210.808 27.5398 210.865 27.5284L211.172 28.9318C211.073 28.9697 210.933 29.0076 210.751 29.0455C210.57 29.0871 210.342 29.1098 210.07 29.1136C209.623 29.1212 209.206 29.0417 208.82 28.875C208.433 28.7083 208.121 28.4508 207.882 28.1023C207.643 27.7538 207.524 27.3163 207.524 26.7898V18.1818ZM215.432 29.1932C214.879 29.1932 214.379 29.0909 213.932 28.8864C213.485 28.678 213.131 28.3769 212.869 27.983C212.612 27.589 212.483 27.1061 212.483 26.5341C212.483 26.0417 212.578 25.6364 212.767 25.3182C212.956 25 213.212 24.7481 213.534 24.5625C213.856 24.3769 214.216 24.2367 214.614 24.142C215.011 24.0473 215.417 23.9754 215.83 23.9261C216.352 23.8655 216.777 23.8163 217.102 23.7784C217.428 23.7367 217.665 23.6705 217.812 23.5795C217.96 23.4886 218.034 23.3409 218.034 23.1364V23.0966C218.034 22.6004 217.894 22.2159 217.614 21.9432C217.337 21.6705 216.924 21.5341 216.375 21.5341C215.803 21.5341 215.352 21.661 215.023 21.9148C214.697 22.1648 214.472 22.4432 214.347 22.75L212.75 22.3864C212.939 21.8561 213.216 21.428 213.58 21.1023C213.947 20.7727 214.369 20.5341 214.847 20.3864C215.324 20.2348 215.826 20.1591 216.352 20.1591C216.701 20.1591 217.07 20.2008 217.46 20.2841C217.854 20.3636 218.222 20.5114 218.562 20.7273C218.907 20.9432 219.189 21.2519 219.409 21.6534C219.629 22.0511 219.739 22.5682 219.739 23.2045V29H218.08V27.8068H218.011C217.902 28.0265 217.737 28.2424 217.517 28.4545C217.297 28.6667 217.015 28.8428 216.67 28.983C216.326 29.1231 215.913 29.1932 215.432 29.1932ZM215.801 27.8295C216.271 27.8295 216.672 27.7367 217.006 27.5511C217.343 27.3655 217.598 27.1231 217.773 26.8239C217.951 26.5208 218.04 26.197 218.04 25.8523V24.7273C217.979 24.7879 217.862 24.8447 217.688 24.8977C217.517 24.947 217.322 24.9905 217.102 25.0284C216.883 25.0625 216.669 25.0947 216.46 25.125C216.252 25.1515 216.078 25.1742 215.938 25.1932C215.608 25.2348 215.307 25.3049 215.034 25.4034C214.765 25.5019 214.549 25.6439 214.386 25.8295C214.227 26.0114 214.148 26.2538 214.148 26.5568C214.148 26.9773 214.303 27.2955 214.614 27.5114C214.924 27.7235 215.32 27.8295 215.801 27.8295Z" fill="#444444" />
            </g>
            <g filter="url(#filter1_d_2_865)">
                <rect x="5" y="3" width="120" height="40" rx="16" fill="#FFFDFD" shape-rendering="crispEdges" />
                <path d="M28.4503 30.5555V24.7066C28.1335 24.7052 27.8174 24.6789 27.5052 24.6279V30.111H25.615V23.9666C25.2748 23.7755 24.9582 23.5506 24.6699 23.2977V30.5555C24.6699 30.6733 24.7197 30.7864 24.8083 30.8697C24.8969 30.9531 25.0171 30.9999 25.1425 30.9999H27.9778C28.1031 30.9999 28.2233 30.9531 28.3119 30.8697C28.4005 30.7864 28.4503 30.6733 28.4503 30.5555ZM28.4503 22.1208C28.1279 22.1184 27.8083 22.0643 27.5052 21.9608V21.2221H26.3541C26.1103 20.9624 25.9227 20.6605 25.8017 20.3333H27.9778C28.1031 20.3333 28.2233 20.3801 28.3119 20.4634C28.4005 20.5468 28.4503 20.6598 28.4503 20.7777V22.1208Z" fill="black" />
                <path fill-rule="evenodd" clip-rule="evenodd" d="M28.451 23.8889C28.1334 23.8882 27.8168 23.8573 27.5059 23.7969V23.7907C25.3742 23.3716 23.7727 21.5938 23.7727 19.4644C23.7727 17.0231 25.877 15.0444 28.4722 15.0444C31.0675 15.0444 33.1717 17.0236 33.1717 19.4644C33.1733 20.3777 32.8728 21.2688 32.3117 22.0142L32.288 22.0449L35 24.5951L34.2921 25.2604L31.6194 22.7471L31.5863 22.7747C30.7281 23.4913 29.6198 23.8863 28.4722 23.8844H28.451V23.8889ZM32.1709 19.4644C32.1709 20.387 31.7812 21.2719 31.0876 21.9242C30.3939 22.5766 29.4532 22.9431 28.4722 22.9431C27.4913 22.9431 26.5505 22.5766 25.8569 21.9242C25.1633 21.2719 24.7736 20.387 24.7736 19.4644C24.7736 18.5418 25.1633 17.657 25.8569 17.0047C26.5505 16.3523 27.4913 15.9858 28.4722 15.9858C29.4532 15.9858 30.3939 16.3523 31.0876 17.0047C31.7812 17.657 32.1709 18.5418 32.1709 19.4644ZM19.4725 15C19.3472 15 19.227 15.0468 19.1384 15.1302C19.0498 15.2135 19 15.3266 19 15.4444V30.5556C19 30.6734 19.0498 30.7865 19.1384 30.8698C19.227 30.9532 19.3472 31 19.4725 31H22.3078C22.4332 31 22.5534 30.9532 22.642 30.8698C22.7306 30.7865 22.7804 30.6734 22.7804 30.5556V15.4444C22.7804 15.3266 22.7306 15.2135 22.642 15.1302C22.5534 15.0468 22.4332 15 22.3078 15H19.4725ZM19.9451 30.1111V15.8889H21.8353V30.1111H19.9451ZM30.3411 26.5556C30.3411 26.4377 30.3909 26.3246 30.4796 26.2413C30.5682 26.1579 30.6884 26.1111 30.8137 26.1111H33.649C33.7743 26.1111 33.8945 26.1579 33.9831 26.2413C34.0717 26.3246 34.1215 26.4377 34.1215 26.5556V30.5556C34.1215 30.6734 34.0717 30.7865 33.9831 30.8698C33.8945 30.9532 33.7743 31 33.649 31H30.8137C30.6884 31 30.5682 30.9532 30.4796 30.8698C30.3909 30.7865 30.3411 30.6734 30.3411 30.5556V26.5556ZM31.2862 27V30.1111H33.1764V27H31.2862Z" fill="black" />
                <path d="M40.6768 29V17.3636H44.8246C45.7261 17.3636 46.4742 17.5189 47.0689 17.8295C47.6674 18.1402 48.1143 18.5701 48.4098 19.1193C48.7053 19.6648 48.853 20.2955 48.853 21.0114C48.853 21.7235 48.7034 22.3504 48.4041 22.892C48.1087 23.4299 47.6617 23.8485 47.0632 24.1477C46.4685 24.447 45.7204 24.5966 44.8189 24.5966H41.6768V23.0852H44.6598C45.228 23.0852 45.6901 23.0038 46.0462 22.8409C46.406 22.678 46.6693 22.4413 46.8359 22.1307C47.0026 21.8201 47.0859 21.447 47.0859 21.0114C47.0859 20.572 47.0007 20.1913 46.8303 19.8693C46.6636 19.5473 46.4003 19.3011 46.0405 19.1307C45.6844 18.9564 45.2166 18.8693 44.6371 18.8693H42.4325V29H40.6768ZM46.4212 23.75L49.2962 29H47.2962L44.478 23.75H46.4212ZM54.505 29.1761C53.6451 29.1761 52.9046 28.9924 52.2834 28.625C51.666 28.2538 51.1887 27.733 50.8516 27.0625C50.5182 26.3883 50.3516 25.5985 50.3516 24.6932C50.3516 23.7992 50.5182 23.0114 50.8516 22.3295C51.1887 21.6477 51.6584 21.1155 52.2607 20.733C52.8667 20.3504 53.575 20.1591 54.3857 20.1591C54.8781 20.1591 55.3554 20.2405 55.8175 20.4034C56.2796 20.5663 56.6944 20.822 57.0618 21.1705C57.4292 21.5189 57.719 21.9716 57.9311 22.5284C58.1432 23.0814 58.2493 23.7538 58.2493 24.5455V25.1477H51.3118V23.875H56.5845C56.5845 23.428 56.4936 23.0322 56.3118 22.6875C56.13 22.339 55.8743 22.0644 55.5447 21.8636C55.219 21.6629 54.8364 21.5625 54.397 21.5625C53.9197 21.5625 53.5031 21.6799 53.147 21.9148C52.7947 22.1458 52.522 22.4489 52.3288 22.8239C52.1394 23.1951 52.0447 23.5985 52.0447 24.0341V25.0284C52.0447 25.6117 52.147 26.108 52.3516 26.517C52.5599 26.9261 52.8497 27.2386 53.2209 27.4545C53.5921 27.6667 54.0258 27.7727 54.522 27.7727C54.844 27.7727 55.1375 27.7273 55.4027 27.6364C55.6679 27.5417 55.897 27.4015 56.0902 27.2159C56.2834 27.0303 56.4311 26.8011 56.5334 26.5284L58.1413 26.8182C58.0125 27.2917 57.7815 27.7064 57.4482 28.0625C57.1186 28.4148 56.7038 28.6894 56.2038 28.8864C55.7076 29.0795 55.1413 29.1761 54.505 29.1761ZM66.674 22.4034L65.1342 22.6761C65.0698 22.4792 64.9676 22.2917 64.8274 22.1136C64.6911 21.9356 64.5054 21.7898 64.2706 21.6761C64.0357 21.5625 63.7422 21.5057 63.3899 21.5057C62.9089 21.5057 62.5073 21.6136 62.1854 21.8295C61.8634 22.0417 61.7024 22.3163 61.7024 22.6534C61.7024 22.9451 61.8104 23.1799 62.0263 23.358C62.2422 23.536 62.5907 23.6818 63.0717 23.7955L64.4581 24.1136C65.2611 24.2992 65.8596 24.5852 66.2536 24.9716C66.6475 25.358 66.8445 25.8598 66.8445 26.4773C66.8445 27 66.6929 27.4659 66.3899 27.875C66.0907 28.2803 65.6721 28.5985 65.1342 28.8295C64.6001 29.0606 63.9808 29.1761 63.2763 29.1761C62.299 29.1761 61.5017 28.9678 60.8842 28.5511C60.2668 28.1307 59.888 27.5341 59.7479 26.7614L61.3899 26.5114C61.4922 26.9394 61.7024 27.2633 62.0206 27.483C62.3388 27.6989 62.7536 27.8068 63.2649 27.8068C63.8217 27.8068 64.2668 27.6913 64.6001 27.4602C64.9335 27.2254 65.1001 26.9394 65.1001 26.6023C65.1001 26.3295 64.9979 26.1004 64.7933 25.9148C64.5926 25.7292 64.2839 25.589 63.8672 25.4943L62.3899 25.1705C61.5755 24.9848 60.9732 24.6894 60.5831 24.2841C60.1967 23.8788 60.0036 23.3655 60.0036 22.7443C60.0036 22.2292 60.1475 21.7784 60.4354 21.392C60.7232 21.0057 61.121 20.7045 61.6286 20.4886C62.1361 20.2689 62.7176 20.1591 63.3729 20.1591C64.3161 20.1591 65.0585 20.3636 65.6001 20.7727C66.1418 21.178 66.4998 21.7216 66.674 22.4034ZM72.4737 29.1761C71.6139 29.1761 70.8733 28.9924 70.2521 28.625C69.6347 28.2538 69.1574 27.733 68.8203 27.0625C68.487 26.3883 68.3203 25.5985 68.3203 24.6932C68.3203 23.7992 68.487 23.0114 68.8203 22.3295C69.1574 21.6477 69.6271 21.1155 70.2294 20.733C70.8355 20.3504 71.5438 20.1591 72.3544 20.1591C72.8468 20.1591 73.3241 20.2405 73.7862 20.4034C74.2483 20.5663 74.6631 20.822 75.0305 21.1705C75.398 21.5189 75.6877 21.9716 75.8999 22.5284C76.112 23.0814 76.218 23.7538 76.218 24.5455V25.1477H69.2805V23.875H74.5533C74.5533 23.428 74.4624 23.0322 74.2805 22.6875C74.0987 22.339 73.843 22.0644 73.5135 21.8636C73.1877 21.6629 72.8052 21.5625 72.3658 21.5625C71.8885 21.5625 71.4718 21.6799 71.1158 21.9148C70.7635 22.1458 70.4908 22.4489 70.2976 22.8239C70.1082 23.1951 70.0135 23.5985 70.0135 24.0341V25.0284C70.0135 25.6117 70.1158 26.108 70.3203 26.517C70.5286 26.9261 70.8184 27.2386 71.1896 27.4545C71.5608 27.6667 71.9946 27.7727 72.4908 27.7727C72.8127 27.7727 73.1063 27.7273 73.3714 27.6364C73.6366 27.5417 73.8658 27.4015 74.0589 27.2159C74.2521 27.0303 74.3999 26.8011 74.5021 26.5284L76.1101 26.8182C75.9813 27.2917 75.7502 27.7064 75.4169 28.0625C75.0874 28.4148 74.6726 28.6894 74.1726 28.8864C73.6764 29.0795 73.1101 29.1761 72.4737 29.1761ZM80.6428 29.1932C80.0897 29.1932 79.5897 29.0909 79.1428 28.8864C78.6958 28.678 78.3416 28.3769 78.0803 27.983C77.8227 27.589 77.6939 27.1061 77.6939 26.5341C77.6939 26.0417 77.7886 25.6364 77.978 25.3182C78.1674 25 78.4231 24.7481 78.745 24.5625C79.067 24.3769 79.4268 24.2367 79.8246 24.142C80.2223 24.0473 80.6276 23.9754 81.0405 23.9261C81.5632 23.8655 81.9875 23.8163 82.3132 23.7784C82.639 23.7367 82.8757 23.6705 83.0234 23.5795C83.1712 23.4886 83.245 23.3409 83.245 23.1364V23.0966C83.245 22.6004 83.1049 22.2159 82.8246 21.9432C82.5481 21.6705 82.1352 21.5341 81.5859 21.5341C81.014 21.5341 80.5632 21.661 80.2337 21.9148C79.9079 22.1648 79.6825 22.4432 79.5575 22.75L77.9609 22.3864C78.1503 21.8561 78.4268 21.428 78.7905 21.1023C79.1579 20.7727 79.5803 20.5341 80.0575 20.3864C80.5348 20.2348 81.0367 20.1591 81.5632 20.1591C81.9117 20.1591 82.281 20.2008 82.6712 20.2841C83.0651 20.3636 83.4325 20.5114 83.7734 20.7273C84.1181 20.9432 84.4003 21.2519 84.62 21.6534C84.8397 22.0511 84.9496 22.5682 84.9496 23.2045V29H83.2905V27.8068H83.2223C83.1125 28.0265 82.9477 28.2424 82.728 28.4545C82.5083 28.6667 82.2261 28.8428 81.8814 28.983C81.5367 29.1231 81.1238 29.1932 80.6428 29.1932ZM81.0121 27.8295C81.4818 27.8295 81.8833 27.7367 82.2166 27.5511C82.5537 27.3655 82.8094 27.1231 82.9837 26.8239C83.1617 26.5208 83.2507 26.197 83.2507 25.8523V24.7273C83.1901 24.7879 83.0727 24.8447 82.8984 24.8977C82.728 24.947 82.5329 24.9905 82.3132 25.0284C82.0935 25.0625 81.8795 25.0947 81.6712 25.125C81.4628 25.1515 81.2886 25.1742 81.1484 25.1932C80.8189 25.2348 80.5178 25.3049 80.245 25.4034C79.9761 25.5019 79.7602 25.6439 79.5973 25.8295C79.4382 26.0114 79.3587 26.2538 79.3587 26.5568C79.3587 26.9773 79.514 27.2955 79.8246 27.5114C80.1352 27.7235 80.531 27.8295 81.0121 27.8295ZM87.2124 29V20.2727H88.8544V21.6591H88.9453C89.1044 21.1894 89.3847 20.8201 89.7862 20.5511C90.1915 20.2784 90.6499 20.142 91.1612 20.142C91.2673 20.142 91.3923 20.1458 91.5362 20.1534C91.6839 20.161 91.7995 20.1705 91.8828 20.1818V21.8068C91.8146 21.7879 91.6934 21.767 91.5192 21.7443C91.3449 21.7178 91.1707 21.7045 90.9964 21.7045C90.5949 21.7045 90.237 21.7898 89.9226 21.9602C89.612 22.1269 89.3658 22.3598 89.1839 22.6591C89.0021 22.9545 88.9112 23.2917 88.9112 23.6705V29H87.2124ZM96.7166 29.1761C95.8719 29.1761 95.1446 28.9848 94.5348 28.6023C93.9287 28.2159 93.4628 27.6837 93.1371 27.0057C92.8113 26.3277 92.6484 25.5511 92.6484 24.6761C92.6484 23.7898 92.8151 23.0076 93.1484 22.3295C93.4818 21.6477 93.9515 21.1155 94.5575 20.733C95.1636 20.3504 95.8776 20.1591 96.6996 20.1591C97.3625 20.1591 97.9534 20.2822 98.4723 20.5284C98.9912 20.7708 99.4098 21.1117 99.728 21.5511C100.05 21.9905 100.241 22.5038 100.302 23.0909H98.6484C98.5575 22.6818 98.3492 22.3295 98.0234 22.0341C97.7015 21.7386 97.2696 21.5909 96.728 21.5909C96.2545 21.5909 95.8397 21.7159 95.4837 21.9659C95.1314 22.2121 94.8568 22.5644 94.6598 23.0227C94.4628 23.4773 94.3643 24.0152 94.3643 24.6364C94.3643 25.2727 94.4609 25.822 94.6541 26.2841C94.8473 26.7462 95.12 27.1042 95.4723 27.358C95.8284 27.6117 96.2469 27.7386 96.728 27.7386C97.05 27.7386 97.3416 27.6799 97.603 27.5625C97.8681 27.4413 98.0897 27.2689 98.2678 27.0455C98.4496 26.822 98.5765 26.553 98.6484 26.2386H100.302C100.241 26.803 100.058 27.3068 99.7507 27.75C99.4439 28.1932 99.0329 28.5417 98.5178 28.7955C98.0064 29.0492 97.406 29.1761 96.7166 29.1761ZM103.817 23.8182V29H102.119V17.3636H103.795V21.6932H103.903C104.107 21.2235 104.42 20.8504 104.84 20.5739C105.261 20.2973 105.81 20.1591 106.488 20.1591C107.086 20.1591 107.609 20.2822 108.056 20.5284C108.507 20.7746 108.855 21.142 109.102 21.6307C109.352 22.1155 109.477 22.7216 109.477 23.4489V29H107.778V23.6534C107.778 23.0133 107.613 22.517 107.283 22.1648C106.954 21.8087 106.496 21.6307 105.908 21.6307C105.507 21.6307 105.147 21.7159 104.829 21.8864C104.514 22.0568 104.266 22.3068 104.085 22.6364C103.906 22.9621 103.817 23.3561 103.817 23.8182Z" fill="black" />
            </g>
            <g filter="url(#filter2_d_2_865)">
                <rect x="261" y="3" width="120" height="40" rx="16" fill="#FFFDFD" shape-rendering="crispEdges" />
                <path d="M290.591 22.3636C291.555 22.3636 292.48 22.0284 293.162 21.4317C293.844 20.835 294.227 20.0257 294.227 19.1818C294.227 18.3379 293.844 17.5286 293.162 16.9319C292.48 16.3352 291.555 16 290.591 16C289.626 16 288.702 16.3352 288.02 16.9319C287.338 17.5286 286.955 18.3379 286.955 19.1818C286.955 20.0257 287.338 20.835 288.02 21.4317C288.702 22.0284 289.626 22.3636 290.591 22.3636ZM290.591 22.3636C292.055 22.3636 293.334 22.8473 294.244 23.651C294.783 24.1295 295.187 24.7122 295.422 25.352M290.591 22.3636C287.682 22.3636 285.5 24.2727 285.5 26.8182V30H292.773M293.5 27.3425L296.547 29.3636L301.5 23.6364" stroke="#444444" />
                <path d="M307.114 29V17.3636H314.41V18.875H308.87V22.4205H314.029V23.9261H308.87V27.4886H314.478V29H307.114ZM317.96 20.2727L319.886 23.6705L321.829 20.2727H323.687L320.965 24.6364L323.71 29H321.852L319.886 25.7386L317.925 29H316.062L318.778 24.6364L316.096 20.2727H317.96ZM325.431 32.2727V20.2727H327.09V21.6875H327.232C327.331 21.5057 327.473 21.2955 327.658 21.0568C327.844 20.8182 328.102 20.6098 328.431 20.4318C328.761 20.25 329.196 20.1591 329.738 20.1591C330.442 20.1591 331.071 20.3371 331.624 20.6932C332.177 21.0492 332.611 21.5625 332.925 22.233C333.244 22.9034 333.403 23.7102 333.403 24.6534C333.403 25.5966 333.246 26.4053 332.931 27.0795C332.617 27.75 332.185 28.267 331.636 28.6307C331.086 28.9905 330.46 29.1705 329.755 29.1705C329.225 29.1705 328.791 29.0814 328.454 28.9034C328.121 28.7254 327.859 28.517 327.67 28.2784C327.48 28.0398 327.335 27.8277 327.232 27.642H327.13V32.2727H325.431ZM327.096 24.6364C327.096 25.25 327.185 25.7879 327.363 26.25C327.541 26.7121 327.799 27.0739 328.136 27.3352C328.473 27.5928 328.886 27.7216 329.374 27.7216C329.882 27.7216 330.306 27.5871 330.647 27.3182C330.988 27.0455 331.246 26.6761 331.42 26.2102C331.598 25.7443 331.687 25.2197 331.687 24.6364C331.687 24.0606 331.6 23.5436 331.425 23.0852C331.255 22.6269 330.997 22.2652 330.653 22C330.312 21.7348 329.886 21.6023 329.374 21.6023C328.882 21.6023 328.465 21.7292 328.124 21.983C327.787 22.2367 327.531 22.5909 327.357 23.0455C327.183 23.5 327.096 24.0303 327.096 24.6364ZM339.067 29.1761C338.208 29.1761 337.467 28.9924 336.846 28.625C336.228 28.2538 335.751 27.733 335.414 27.0625C335.081 26.3883 334.914 25.5985 334.914 24.6932C334.914 23.7992 335.081 23.0114 335.414 22.3295C335.751 21.6477 336.221 21.1155 336.823 20.733C337.429 20.3504 338.138 20.1591 338.948 20.1591C339.441 20.1591 339.918 20.2405 340.38 20.4034C340.842 20.5663 341.257 20.822 341.624 21.1705C341.992 21.5189 342.281 21.9716 342.494 22.5284C342.706 23.0814 342.812 23.7538 342.812 24.5455V25.1477H335.874V23.875H341.147C341.147 23.428 341.056 23.0322 340.874 22.6875C340.692 22.339 340.437 22.0644 340.107 21.8636C339.781 21.6629 339.399 21.5625 338.96 21.5625C338.482 21.5625 338.066 21.6799 337.71 21.9148C337.357 22.1458 337.085 22.4489 336.891 22.8239C336.702 23.1951 336.607 23.5985 336.607 24.0341V25.0284C336.607 25.6117 336.71 26.108 336.914 26.517C337.122 26.9261 337.412 27.2386 337.783 27.4545C338.155 27.6667 338.588 27.7727 339.085 27.7727C339.406 27.7727 339.7 27.7273 339.965 27.6364C340.23 27.5417 340.46 27.4015 340.653 27.2159C340.846 27.0303 340.994 26.8011 341.096 26.5284L342.704 26.8182C342.575 27.2917 342.344 27.7064 342.011 28.0625C341.681 28.4148 341.266 28.6894 340.766 28.8864C340.27 29.0795 339.704 29.1761 339.067 29.1761ZM344.697 29V20.2727H346.339V21.6591H346.43C346.589 21.1894 346.869 20.8201 347.271 20.5511C347.676 20.2784 348.134 20.142 348.646 20.142C348.752 20.142 348.877 20.1458 349.021 20.1534C349.168 20.161 349.284 20.1705 349.367 20.1818V21.8068C349.299 21.7879 349.178 21.767 349.004 21.7443C348.829 21.7178 348.655 21.7045 348.481 21.7045C348.079 21.7045 347.721 21.7898 347.407 21.9602C347.096 22.1269 346.85 22.3598 346.668 22.6591C346.487 22.9545 346.396 23.2917 346.396 23.6705V29H344.697ZM355.427 20.2727V21.6364H350.66V20.2727H355.427ZM351.938 18.1818H353.637V26.4375C353.637 26.767 353.686 27.0152 353.785 27.1818C353.883 27.3447 354.01 27.4564 354.165 27.517C354.325 27.5739 354.497 27.6023 354.683 27.6023C354.819 27.6023 354.938 27.5928 355.04 27.5739C355.143 27.5549 355.222 27.5398 355.279 27.5284L355.586 28.9318C355.487 28.9697 355.347 29.0076 355.165 29.0455C354.984 29.0871 354.756 29.1098 354.484 29.1136C354.037 29.1212 353.62 29.0417 353.234 28.875C352.847 28.7083 352.535 28.4508 352.296 28.1023C352.058 27.7538 351.938 27.3163 351.938 26.7898V18.1818Z" fill="#444444" />
            </g>
            <defs>
                <filter id="filter0_d_2_865" x="128" y="0" width="130" height="50" filterUnits="userSpaceOnUse" color-interpolation-filters="sRGB">
                    <feFlood flood-opacity="0" result="BackgroundImageFix" />
                    <feColorMatrix in="SourceAlpha" type="matrix" values="0 0 0 0 0 0 0 0 0 0 0 0 0 0 0 0 0 0 127 0" result="hardAlpha" />
                    <feMorphology radius="2" operator="dilate" in="SourceAlpha" result="effect1_dropShadow_2_865" />
                    <feOffset dy="2" />
                    <feGaussianBlur stdDeviation="1.5" />
                    <feComposite in2="hardAlpha" operator="out" />
                    <feColorMatrix type="matrix" values="0 0 0 0 0 0 0 0 0 0 0 0 0 0 0 0 0 0 0.25 0" />
                    <feBlend mode="normal" in2="BackgroundImageFix" result="effect1_dropShadow_2_865" />
                    <feBlend mode="normal" in="SourceGraphic" in2="effect1_dropShadow_2_865" result="shape" />
                </filter>
                <filter id="filter1_d_2_865" x="0" y="0" width="130" height="50" filterUnits="userSpaceOnUse" color-interpolation-filters="sRGB">
                    <feFlood flood-opacity="0" result="BackgroundImageFix" />
                    <feColorMatrix in="SourceAlpha" type="matrix" values="0 0 0 0 0 0 0 0 0 0 0 0 0 0 0 0 0 0 127 0" result="hardAlpha" />
                    <feMorphology radius="2" operator="dilate" in="SourceAlpha" result="effect1_dropShadow_2_865" />
                    <feOffset dy="2" />
                    <feGaussianBlur stdDeviation="1.5" />
                    <feComposite in2="hardAlpha" operator="out" />
                    <feColorMatrix type="matrix" values="0 0 0 0 0 0 0 0 0 0 0 0 0 0 0 0 0 0 0.25 0" />
                    <feBlend mode="normal" in2="BackgroundImageFix" result="effect1_dropShadow_2_865" />
                    <feBlend mode="normal" in="SourceGraphic" in2="effect1_dropShadow_2_865" result="shape" />
                </filter>
                <filter id="filter2_d_2_865" x="256" y="0" width="130" height="50" filterUnits="userSpaceOnUse" color-interpolation-filters="sRGB">
                    <feFlood flood-opacity="0" result="BackgroundImageFix" />
                    <feColorMatrix in="SourceAlpha" type="matrix" values="0 0 0 0 0 0 0 0 0 0 0 0 0 0 0 0 0 0 127 0" result="hardAlpha" />
                    <feMorphology radius="2" operator="dilate" in="SourceAlpha" result="effect1_dropShadow_2_865" />
                    <feOffset dy="2" />
                    <feGaussianBlur stdDeviation="1.5" />
                    <feComposite in2="hardAlpha" operator="out" />
                    <feColorMatrix type="matrix" values="0 0 0 0 0 0 0 0 0 0 0 0 0 0 0 0 0 0 0.25 0" />
                    <feBlend mode="normal" in2="BackgroundImageFix" result="effect1_dropShadow_2_865" />
                    <feBlend mode="normal" in="SourceGraphic" in2="effect1_dropShadow_2_865" result="shape" />
                </filter>
            </defs>
        </svg>