<svg width="15" height="15" viewBox="0 0 15 15" fill="none" xmlns="http://www.w3.org/2000/svg">
<path d="M14.3536 15L8.62022 9.26732C8.16242 9.65731 7.63596 9.95911 7.04084 10.1727C6.44571 10.3863 5.84753 10.4931 5.24629 10.4931C3.78014 10.4931 2.53922 9.98566 1.52353 8.97071C0.507844 7.95575 0 6.71529 0 5.24932C0 3.78334 0.507233 2.54227 1.5217 1.52609C2.53617 0.50992 3.77648 0.00122282 5.24263 2.19537e-06C6.70878 -0.00121843 7.95031 0.506563 8.96722 1.52335C9.98413 2.54013 10.4926 3.7812 10.4926 5.24657C10.4926 5.88252 10.38 6.49802 10.1547 7.09307C9.9295 7.68813 9.63346 8.19713 9.26662 8.62008L15 14.3518L14.3536 15ZM5.24721 9.57675C6.46188 9.57675 7.48733 9.15868 8.32357 8.32255C9.1598 7.48642 9.57792 6.46079 9.57792 5.24565C9.57792 4.03052 9.1598 3.00519 8.32357 2.16967C7.48733 1.33415 6.46188 0.916084 5.24721 0.915474C4.03253 0.914863 3.00678 1.33293 2.16993 2.16967C1.33309 3.00641 0.914973 4.03174 0.915583 5.24565C0.916194 6.45957 1.33431 7.4849 2.16993 8.32164C3.00555 9.15838 4.03101 9.57644 5.24629 9.57583" fill="black" fill-opacity="0.6"/>
</svg>
