<svg width="88" height="88" viewBox="0 0 88 88" fill="none" xmlns="http://www.w3.org/2000/svg">
<path d="M84 18.2857C84 20.1617 82.9654 22.0194 80.9552 23.7526C78.945 25.4858 75.9986 27.0607 72.2843 28.3872C68.5699 29.7138 64.1604 30.766 59.3073 31.484C54.4543 32.2019 49.2529 32.5714 44 32.5714C33.3913 32.5714 23.2172 31.0663 15.7157 28.3872C8.21427 25.7081 4 22.0745 4 18.2857C4 16.4097 5.03463 14.552 7.04482 12.8188C9.05501 11.0856 12.0014 9.51074 15.7157 8.18419C19.4301 6.85764 23.8396 5.80536 28.6927 5.08743C33.5457 4.36951 38.7471 4 44 4C49.2529 4 54.4543 4.36951 59.3073 5.08743C64.1604 5.80536 68.5699 6.85764 72.2843 8.18419C75.9986 9.51074 78.945 11.0856 80.9552 12.8188C82.9654 14.552 84 16.4097 84 18.2857Z" stroke="#6D3E93" stroke-opacity="0.8" stroke-width="7" stroke-linecap="round" stroke-linejoin="round"/>
<path d="M84 69.7139C84 72.2215 82.1518 74.685 78.641 76.8567C75.1303 79.0284 70.0808 80.8318 64 82.0857C57.9192 83.3395 51.0215 83.9996 44 83.9996C36.9785 83.9996 30.0808 83.3395 24 82.0857C17.9192 80.8318 12.8697 79.0284 9.35898 76.8567C5.84825 74.685 4 72.2215 4 69.7139" stroke="#6D3E93" stroke-opacity="0.8" stroke-width="7" stroke-linecap="round" stroke-linejoin="round"/>
<path d="M84 52.5713C84 55.079 82.1517 57.5424 78.641 59.7141C75.1303 61.8858 70.0808 63.6892 64 64.9431C57.9192 66.1969 51.0215 66.857 44 66.857C36.9785 66.857 30.0808 66.1969 24 64.9431C17.9192 63.6892 12.8697 61.8858 9.35898 59.7141C5.84825 57.5424 4 55.079 4 52.5713" stroke="#6D3E93" stroke-opacity="0.8" stroke-width="7" stroke-linecap="round" stroke-linejoin="round"/>
<path d="M84 35.4287C84 37.9364 82.1518 40.3999 78.641 42.5716C75.1303 44.7433 70.0808 46.5467 64 47.8005C57.9192 49.0543 51.0215 49.7144 44 49.7144C36.9785 49.7144 30.0808 49.0543 24 47.8005C17.9192 46.5467 12.8697 44.7433 9.35898 42.5716C5.84825 40.3999 4 37.9364 4 35.4287" stroke="#6D3E93" stroke-opacity="0.8" stroke-width="7" stroke-linecap="round" stroke-linejoin="round"/>
<path d="M4 18.2861V69.7146" stroke="#6D3E93" stroke-opacity="0.8" stroke-width="7" stroke-linecap="round" stroke-linejoin="round"/>
<path d="M84 18.2852V69.7137" stroke="#6D3E93" stroke-opacity="0.8" stroke-width="7" stroke-linecap="round" stroke-linejoin="round"/>
</svg>
