<svg width="80" height="80" viewBox="0 0 80 80" fill="none" xmlns="http://www.w3.org/2000/svg">
<path d="M72.7289 14.5422V7.27108H65.4579V0H58.1831V7.27108H50.9121V0H43.6374V7.27108H36.3663V0H29.0879V7.27108H21.8169V0H14.5422V7.27108H7.27108V14.5422H0V21.8169H7.27108V29.0879H0V36.3626H7.27108V43.6337H0V50.9084H7.27108V58.1795H0V65.4542H7.27108V72.7253H14.5422V80H21.8169V72.7289H29.0879V80H36.3626V72.7289H43.6337V80H50.9084V72.7289H58.1795V80H65.4542V72.7289H72.7253V65.4579H80V58.1831H72.7289V50.9121H80V43.6374H72.7289V36.3663H80V29.0879H72.7289V21.8169H80V14.5422H72.7289ZM65.4579 65.4542H14.5422V14.5458H65.4506L65.4579 65.4542Z" fill="#6D3E93" fill-opacity="0.8"/>
</svg>
