<svg width="17" height="17" viewBox="0 0 17 17" fill="none" xmlns="http://www.w3.org/2000/svg">
<path d="M1.83333 1H15.1667C15.3877 1 15.5996 1.08919 15.7559 1.24795C15.9122 1.40671 16 1.62203 16 1.84655V3.18918C16 3.41368 15.9121 3.62897 15.7558 3.78769L10.4108 9.21746C10.2545 9.37618 10.1667 9.59147 10.1667 9.81597V15.1535C10.1667 15.2822 10.1378 15.4091 10.0822 15.5248C10.0267 15.6404 9.94587 15.7417 9.84601 15.8208C9.74615 15.9 9.62983 15.955 9.50591 15.9816C9.38198 16.0083 9.25371 16.0059 9.13083 15.9746L7.46417 15.5514C7.28396 15.5055 7.12401 15.3998 7.00971 15.251C6.89542 15.1022 6.83334 14.9189 6.83333 14.7302V9.81597C6.83329 9.59147 6.74546 9.37618 6.58917 9.21746L1.24417 3.78769C1.08788 3.62897 1.00005 3.41368 1 3.18918V1.84655C1 1.62203 1.0878 1.40671 1.24408 1.24795C1.40036 1.08919 1.61232 1 1.83333 1Z" stroke="black" stroke-opacity="0.6" stroke-linecap="round" stroke-linejoin="round"/>
</svg>
