<svg width="10" height="15" viewBox="0 0 10 15" fill="none" xmlns="http://www.w3.org/2000/svg">
<path d="M10 5.25C10 4.56056 9.87067 3.87787 9.6194 3.24091C9.36812 2.60395 8.99983 2.0252 8.53553 1.53769C8.07124 1.05018 7.52005 0.66347 6.91342 0.399632C6.30679 0.135795 5.65661 0 5 0C4.34339 0 3.69321 0.135795 3.08658 0.399632C2.47995 0.66347 1.92876 1.05018 1.46447 1.53769C1.00017 2.0252 0.631876 2.60395 0.380602 3.24091C0.129329 3.87787 -9.78424e-09 4.56056 0 5.25C0 6.29025 0.292143 7.25775 0.789286 8.07375H0.783572L5 15L9.21643 8.07375H9.21143C9.72638 7.2312 10.0001 6.25112 10 5.25ZM5 7.5C4.43168 7.5 3.88663 7.26295 3.48477 6.84099C3.08291 6.41903 2.85714 5.84674 2.85714 5.25C2.85714 4.65326 3.08291 4.08097 3.48477 3.65901C3.88663 3.23705 4.43168 3 5 3C5.56832 3 6.11337 3.23705 6.51523 3.65901C6.91709 4.08097 7.14286 4.65326 7.14286 5.25C7.14286 5.84674 6.91709 6.41903 6.51523 6.84099C6.11337 7.26295 5.56832 7.5 5 7.5Z" fill="black" fill-opacity="0.6"/>
</svg>
